<svg width="20" height="6" viewBox="0 0 20 6" fill="none" xmlns="http://www.w3.org/2000/svg">

<path d="M15 2.5C15.2761 2.5 15.5 2.72386 15.5 3C15.5 3.27614 15.2761 3.5 15 3.5V2.5ZM1 3.5C0.723858 3.5 0.5 3.27614 0.5 3C0.5 2.72386 0.723858 2.5 1 2.5V3.5ZM15 3.5H1V2.5H15V3.5Z" fill="#2D8BF6"/>
<path d="M19.6427 2.78563L16.2116 0.726958C15.6784 0.407026 15 0.791117 15 1.41295V4.58705C15 5.20888 15.6784 5.59297 16.2116 5.27304L19.6427 3.21437C19.8045 3.11727 19.8045 2.88273 19.6427 2.78563Z" fill="#2D8BF6"/>

</svg>
