<svg width="20" height="6" viewBox="0 0 20 6" fill="none" xmlns="http://www.w3.org/2000/svg">

<path d="M5 3.5C4.72386 3.5 4.5 3.27614 4.5 3C4.5 2.72386 4.72386 2.5 5 2.5L5 3.5ZM19 2.5C19.2761 2.5 19.5 2.72386 19.5 3C19.5 3.27614 19.2761 3.5 19 3.5L19 2.5ZM5 2.5L19 2.5L19 3.5L5 3.5L5 2.5Z" fill="#2D8BF6"/>
<path d="M0.357289 3.21437L3.7884 5.27304C4.32162 5.59297 5 5.20888 5 4.58705L5 1.41295C5 0.791117 4.32162 0.407027 3.7884 0.726959L0.357289 2.78563C0.195454 2.88273 0.195454 3.11727 0.357289 3.21437Z" fill="#2D8BF6"/>


</svg>
