<svg width="72" height="72" viewBox="0 0 72 72" fill="none" xmlns="http://www.w3.org/2000/svg">
<path d="M6 19C6 17.1144 6 16.1716 6.58579 15.5858C7.17157 15 8.11438 15 10 15H62C63.8856 15 64.8284 15 65.4142 15.5858C66 16.1716 66 17.1144 66 19V29C66 29.4714 66 29.7071 65.8536 29.8536C65.7071 30 65.4714 30 65 30H7C6.5286 30 6.29289 30 6.14645 29.8536C6 29.7071 6 29.4714 6 29V19Z" fill="#2D8BF6"/>
<path fill-rule="evenodd" clip-rule="evenodd" d="M6 62C6 63.8856 6 64.8284 6.58579 65.4142C7.17157 66 8.11438 66 10 66H62C63.8856 66 64.8284 66 65.4142 65.4142C66 64.8284 66 63.8856 66 62V37C66 36.5286 66 36.2929 65.8536 36.1464C65.7071 36 65.4714 36 65 36H7C6.52859 36 6.29289 36 6.14645 36.1464C6 36.2929 6 36.5286 6 37V62ZM21 43C21 42.5286 21 42.2929 21.1464 42.1464C21.2929 42 21.5286 42 22 42H32C32.4714 42 32.7071 42 32.8536 42.1464C33 42.2929 33 42.5286 33 43V47C33 47.4714 33 47.7071 32.8536 47.8536C32.7071 48 32.4714 48 32 48H22C21.5286 48 21.2929 48 21.1464 47.8536C21 47.7071 21 47.4714 21 47V43ZM21.1464 54.1464C21 54.2929 21 54.5286 21 55V59C21 59.4714 21 59.7071 21.1464 59.8536C21.2929 60 21.5286 60 22 60H32C32.4714 60 32.7071 60 32.8536 59.8536C33 59.7071 33 59.4714 33 59V55C33 54.5286 33 54.2929 32.8536 54.1464C32.7071 54 32.4714 54 32 54H22C21.5286 54 21.2929 54 21.1464 54.1464ZM39 43C39 42.5286 39 42.2929 39.1464 42.1464C39.2929 42 39.5286 42 40 42H50C50.4714 42 50.7071 42 50.8536 42.1464C51 42.2929 51 42.5286 51 43V47C51 47.4714 51 47.7071 50.8536 47.8536C50.7071 48 50.4714 48 50 48H40C39.5286 48 39.2929 48 39.1464 47.8536C39 47.7071 39 47.4714 39 47V43ZM39.1464 54.1464C39 54.2929 39 54.5286 39 55V59C39 59.4714 39 59.7071 39.1464 59.8536C39.2929 60 39.5286 60 40 60H50C50.4714 60 50.7071 60 50.8536 59.8536C51 59.7071 51 59.4714 51 59V55C51 54.5286 51 54.2929 50.8536 54.1464C50.7071 54 50.4714 54 50 54H40C39.5286 54 39.2929 54 39.1464 54.1464Z" fill="#2D8BF6"/>
<path d="M21 9L21 18" stroke="#2D8BF6" stroke-width="2" stroke-linecap="round"/>
<path d="M51 9L51 18" stroke="#2D8BF6" stroke-width="2" stroke-linecap="round"/>
</svg>
