<svg width="30" height="30" viewBox="0 0 30 30" fill="none" xmlns="http://www.w3.org/2000/svg">
<rect width="30" height="30" rx="8" fill="#100943"/>
<g clip-path="url(#clip0_801_2438)">
<path d="M17.4833 15.6748H10.8241V12.9645H17.4833C17.8723 12.9645 18.1427 13.0342 18.2785 13.156C18.4142 13.2778 18.4983 13.5037 18.4983 13.8336V14.8068C18.4983 15.1544 18.4142 15.3803 18.2785 15.5021C18.1427 15.6239 17.8723 15.6759 17.4833 15.6759V15.6748ZM17.9401 10.4092H8V22H10.8241V18.2291H16.0287L18.4983 22H21.6607L18.9379 18.2114C19.9417 18.0584 20.3925 17.742 20.7642 17.2205C21.136 16.699 21.3224 15.8653 21.3224 14.7527V13.8836C21.3224 13.2237 21.2545 12.7022 21.136 12.3025C21.0175 11.9028 20.8149 11.5552 20.5272 11.243C20.2233 10.9474 19.885 10.7392 19.4788 10.5997C19.0726 10.4779 18.5651 10.4082 17.9401 10.4082V10.4092Z" fill="white"/>
<path d="M23.8308 10.4082C25.0291 10.4082 26.0004 9.42136 26.0004 8.20408C26.0004 6.9868 25.0291 6 23.8308 6C22.6325 6 21.6611 6.9868 21.6611 8.20408C21.6611 9.42136 22.6325 10.4082 23.8308 10.4082Z" fill="#ED143B"/>
</g>
<defs>
<clipPath id="clip0_801_2438">
<rect width="18" height="16" fill="white" transform="translate(8 6)"/>
</clipPath>
</defs>
</svg>
