<svg width="30" height="30" viewBox="0 0 30 30" fill="none" xmlns="http://www.w3.org/2000/svg">
<path d="M0 14.4C0 7.61175 0 4.21766 2.10883 2.10883C4.21766 0 7.61175 0 14.4 0H15.6C22.3883 0 25.7823 0 27.8912 2.10883C30 4.21766 30 7.61175 30 14.4V15.6C30 22.3883 30 25.7823 27.8912 27.8912C25.7823 30 22.3883 30 15.6 30H14.4C7.61175 30 4.21766 30 2.10883 27.8912C0 25.7823 0 22.3883 0 15.6V14.4Z" fill="#0077FF"/>
<path d="M15.9624 21.6125C9.12494 21.6125 5.225 16.925 5.0625 9.125H8.4875C8.6 14.85 11.1249 17.275 13.1249 17.775V9.125H16.3501V14.0625C18.3251 13.85 20.3998 11.6 21.0998 9.125H24.3249C23.7874 12.175 21.5374 14.425 19.9374 15.35C21.5374 16.1 24.1 18.0625 25.075 21.6125H21.5249C20.7624 19.2375 18.8626 17.4 16.3501 17.15V21.6125H15.9624Z" fill="white"/>
</svg>
