<svg width="30" height="30" viewBox="0 0 30 30" fill="none" xmlns="http://www.w3.org/2000/svg">
<path d="M30 25.6099C30 28.0346 28.0445 30 25.6323 30H4.36767C1.95545 30 0 28.0346 0 25.6099V4.39008C0 1.96548 1.95545 0 4.36767 0H25.6323C28.0446 0 30 1.96548 30 4.39008V25.6099Z" fill="#FAAB62"/>
<path d="M29.8461 25.5009C29.8461 27.9006 27.9107 29.8459 25.5233 29.8459H4.47706C2.08964 29.8459 0.154297 27.9006 0.154297 25.5009V4.49898C0.154297 2.09932 2.08972 0.154053 4.47706 0.154053H25.5233C27.9107 0.154053 29.8461 2.0994 29.8461 4.49898V25.5009Z" fill="#F7931E"/>
<path d="M14.9831 4.48364C12.0098 4.48364 9.59961 6.9063 9.59961 9.89471C9.59961 12.8832 12.0098 15.306 14.9831 15.306C17.9563 15.306 20.3665 12.8832 20.3665 9.89471C20.3665 6.9063 17.9563 4.48364 14.9831 4.48364ZM14.9831 12.1317C13.754 12.1317 12.7577 11.1301 12.7577 9.89479C12.7577 8.65945 13.754 7.65797 14.9831 7.65797C16.2121 7.65797 17.2085 8.65945 17.2085 9.89479C17.2085 11.1301 16.2121 12.1317 14.9831 12.1317Z" fill="white"/>
<path d="M16.8843 19.6117C19.0395 19.1704 20.3311 18.1445 20.3994 18.0894C21.03 17.5811 21.1314 16.6551 20.6256 16.0211C20.1199 15.3872 19.1987 15.2854 18.5679 15.7937C18.5546 15.8045 17.1771 16.8666 14.9106 16.8682C12.6442 16.8666 11.2376 15.8045 11.2243 15.7937C10.5935 15.2854 9.67231 15.3872 9.16661 16.0211C8.66084 16.6551 8.76215 17.5811 9.3928 18.0894C9.46206 18.1453 10.8069 19.1978 13.0225 19.6288L9.93463 22.8724C9.37347 23.4574 9.39034 24.3888 9.9723 24.9528C10.2564 25.2281 10.6225 25.3649 10.9882 25.3649C11.3718 25.3649 11.7549 25.2143 12.0421 24.9149L14.9107 21.8434L18.0691 24.9348C18.6413 25.509 19.568 25.5081 20.1392 24.9331C20.7103 24.3581 20.7096 23.4265 20.1375 22.8524L16.8843 19.6117Z" fill="white"/>
</svg>
