<svg width="72" height="72" viewBox="0 0 72 72" fill="none" xmlns="http://www.w3.org/2000/svg">
<path fill-rule="evenodd" clip-rule="evenodd" d="M37 6V25L37 25.0788C36.9997 25.4785 36.9994 25.9545 37.0544 26.3638C37.1209 26.8579 37.2987 27.5413 37.8787 28.1213C38.4587 28.7013 39.1421 28.8791 39.6362 28.9456C40.0455 29.0006 40.5214 29.0003 40.9211 29H40.9212L41 29H60V48C60 56.4853 60 60.7279 57.364 63.364C54.7279 66 50.4853 66 42 66H30C21.5147 66 17.2721 66 14.636 63.364C12 60.7279 12 56.4853 12 48V24C12 15.5147 12 11.2721 14.636 8.63604C17.2721 6 21.5147 6 30 6H37ZM41 6.00129V25H59.9987C59.9909 23.1735 59.9354 22.1358 59.5433 21.1892C59.0866 20.0866 58.2195 19.2195 56.4853 17.4853L48.5147 9.51472C46.7805 7.78054 45.9134 6.91345 44.8108 6.45672C43.8642 6.06463 42.8265 6.00914 41 6.00129ZM25 39C25 37.8954 25.8954 37 27 37H45C46.1046 37 47 37.8954 47 39C47 40.1046 46.1046 41 45 41H27C25.8954 41 25 40.1046 25 39ZM27 49C25.8954 49 25 49.8954 25 51C25 52.1046 25.8954 53 27 53H39C40.1046 53 41 52.1046 41 51C41 49.8954 40.1046 49 39 49H27Z" fill="#2D8BF6"/>
</svg>
