<svg width="28" height="28" viewBox="0 0 28 28" fill="none" xmlns="http://www.w3.org/2000/svg">
<path fill-rule="evenodd" clip-rule="evenodd" d="M28 14C28 21.732 21.732 28 14 28C6.26801 28 0 21.732 0 14C0 6.26801 6.26801 0 14 0C21.732 0 28 6.26801 28 14ZM15.75 7C15.75 7.9665 14.9665 8.75 14 8.75C13.0335 8.75 12.25 7.9665 12.25 7C12.25 6.0335 13.0335 5.25 14 5.25C14.9665 5.25 15.75 6.0335 15.75 7ZM12.25 12.25C11.2835 12.25 10.5 13.0335 10.5 14C10.5 14.9665 11.2835 15.75 12.25 15.75V21C12.25 21.9665 13.0335 22.75 14 22.75H15.75C16.7165 22.75 17.5 21.9665 17.5 21C17.5 20.0335 16.7165 19.25 15.75 19.25V14C15.75 13.0335 14.9665 12.25 14 12.25H12.25Z" fill="#2D8BF6"/>
</svg>
