<svg width="72" height="72" viewBox="0 0 72 72" fill="none" xmlns="http://www.w3.org/2000/svg">
<path d="M41.3333 17.5L54.5 30.6667L30.6667 54.5L17.5 41.3334L41.3333 17.5ZM32.5417 58.2917L58.2917 32.5417C58.8194 32.0139 59.0833 31.3889 59.0833 30.6667C59.0833 29.9445 58.8194 29.3195 58.2917 28.7917L43.2083 13.7084C42.7083 13.2084 42.0833 12.9584 41.3333 12.9584C40.5833 12.9584 39.9583 13.2084 39.4583 13.7084L13.7083 39.4584C13.1805 39.9861 12.9167 40.6111 12.9167 41.3334C12.9167 42.0556 13.1805 42.6806 13.7083 43.2084L28.7917 58.2917C29.2917 58.7917 29.9167 59.0417 30.6667 59.0417C31.4167 59.0417 32.0417 58.7917 32.5417 58.2917ZM69.5833 31.75L31.7917 69.5834C30.7639 70.6111 29.5069 71.125 28.0208 71.125C26.5347 71.125 25.2778 70.6111 24.25 69.5834L19 64.3334C20.5555 62.7778 21.3333 60.8889 21.3333 58.6667C21.3333 56.4445 20.5555 54.5556 19 53C17.4444 51.4445 15.5555 50.6667 13.3333 50.6667C11.1111 50.6667 9.22221 51.4445 7.66666 53L2.45832 47.75C1.43055 46.7222 0.916656 45.4653 0.916656 43.9792C0.916656 42.4931 1.43055 41.2361 2.45832 40.2084L40.25 2.45835C41.2778 1.43058 42.5347 0.916687 44.0208 0.916687C45.5069 0.916687 46.7639 1.43058 47.7917 2.45835L53 7.66669C51.4444 9.22224 50.6667 11.1111 50.6667 13.3334C50.6667 15.5556 51.4444 17.4445 53 19C54.5555 20.5556 56.4444 21.3334 58.6667 21.3334C60.8889 21.3334 62.7778 20.5556 64.3333 19L69.5833 24.2084C70.6111 25.2361 71.125 26.4931 71.125 27.9792C71.125 29.4653 70.6111 30.7222 69.5833 31.75Z" fill="#2D8BF6"/>
</svg>
