<svg width="28" height="28" viewBox="0 0 28 28" fill="none" xmlns="http://www.w3.org/2000/svg">
<path d="M16.3333 4.66675H11.6667C7.26689 4.66675 5.067 4.66675 3.70016 6.03358C2.71603 7.01771 2.44048 8.43371 2.36333 10.7917H25.6367C25.5595 8.43371 25.284 7.01771 24.2998 6.03358C22.933 4.66675 20.7331 4.66675 16.3333 4.66675Z" fill="#2D8BF6"/>
<path d="M11.6667 23.3334H16.3333C20.7331 23.3334 22.933 23.3334 24.2998 21.9666C25.6667 20.5997 25.6667 18.3999 25.6667 14.0001C25.6667 13.4845 25.6667 12.9991 25.6645 12.5417H2.33553C2.33333 12.9991 2.33333 13.4845 2.33333 14.0001C2.33333 18.3999 2.33333 20.5997 3.70016 21.9666C5.067 23.3334 7.26689 23.3334 11.6667 23.3334Z" fill="#2D8BF6"/>
<path fill-rule="evenodd" clip-rule="evenodd" d="M6.125 18.6667C6.125 18.1835 6.51675 17.7917 7 17.7917H11.6667C12.1499 17.7917 12.5417 18.1835 12.5417 18.6667C12.5417 19.15 12.1499 19.5417 11.6667 19.5417H7C6.51675 19.5417 6.125 19.15 6.125 18.6667Z" fill="white"/>
<path fill-rule="evenodd" clip-rule="evenodd" d="M13.7083 18.6667C13.7083 18.1835 14.1001 17.7917 14.5833 17.7917H16.3333C16.8166 17.7917 17.2083 18.1835 17.2083 18.6667C17.2083 19.15 16.8166 19.5417 16.3333 19.5417H14.5833C14.1001 19.5417 13.7083 19.15 13.7083 18.6667Z" fill="white"/>
</svg>
