<svg width="122" height="18" viewBox="0 0 122 18" fill="none" xmlns="http://www.w3.org/2000/svg">
  <symbol id="index" width="100%" height="100%" viewBox="0 0 122 18">
    <path d="m7.418 1.941.088.22a4.19 4.19 0 0 0-1.6.897c-.48.421-.958 1.007-1.432 1.757a15.686 15.686 0 0 0-1.82 3.99c-.263.897-.395 1.73-.395 2.497 0 1.06.293 1.846.879 2.355.468.41 1.06.616 1.775.616 1.535 0 2.991-.944 4.368-2.83a13.59 13.59 0 0 0 1.951-3.789c.311-.943.466-1.819.466-2.628 0-.96-.27-1.655-.808-2.083a2.146 2.146 0 0 0-1.371-.465c-.663 0-1.304.237-1.925.711a4.728 4.728 0 0 0-1.547 2.083c-.182.457-.273.865-.273 1.222 0 .358.082.668.247.932.164.263.375.395.632.395.264 0 .422-.17.475-.51.047-.275.217-.413.51-.413.222 0 .41.082.562.247a.681.681 0 0 1 .185.474c0 .264-.109.513-.325.747a1.493 1.493 0 0 1-1.134.475c-.457 0-.844-.155-1.16-.466-.346-.346-.519-.826-.519-1.441 0-1.002.437-2.04 1.31-3.112a6.022 6.022 0 0 1 1.626-1.406c.673-.393 1.356-.589 2.047-.589a2.79 2.79 0 0 1 1.714.58c.47.358.812.882 1.029 1.573.158.499.237 1.038.237 1.618 0 1.324-.331 2.651-.993 3.981a9.145 9.145 0 0 1-3.437 3.753c-1.295.803-2.592 1.204-3.893 1.204-1.219 0-2.195-.434-2.927-1.3-.697-.815-1.046-1.84-1.046-3.077 0-1.049.278-2.165.835-3.348.973-2.057 2.34-3.507 4.105-4.351a6.72 6.72 0 0 1 1.564-.519zm9.457 9.862c-.867 1.6-1.79 2.4-2.769 2.4-.597 0-1.02-.253-1.265-.757a2.105 2.105 0 0 1-.176-.58 2.922 2.922 0 0 1-.026-.237l-.01-.158c0-.674.168-1.41.502-2.206.27-.627.618-1.248 1.046-1.864 1.096-1.593 2.194-2.39 3.296-2.39.691 0 1.037.281 1.037.843 0 .47-.205.704-.616.704-.345 0-.518-.194-.518-.58 0-.094.02-.188.061-.282l.027-.044.026-.052a.31.31 0 0 0 .027-.123.155.155 0 0 0-.044-.115c-.041-.047-.1-.07-.176-.07-.569 0-1.137.451-1.705 1.354-.194.31-.396.682-.607 1.116-.263.539-.506 1.11-.73 1.714-.392 1.054-.588 1.845-.588 2.373 0 .685.217 1.028.65 1.028.381 0 .809-.255 1.284-.765.334-.357.697-.846 1.09-1.467l.184.158zm5.924-2.145 1.283-3.454h1.107l-2.39 6.46c-.088.234-.132.399-.132.492 0 .059.02.103.061.132l.053.027.097-.01a.117.117 0 0 0 .07-.026c.07-.035.153-.096.246-.184.258-.252.607-.7 1.046-1.345l.246.22c-.591.79-.963 1.268-1.116 1.432-.475.545-.908.818-1.3.818a.55.55 0 0 1-.379-.14c-.14-.118-.21-.294-.21-.528 0-.235.081-.56.246-.976l.922-2.478h-2.153L19.028 14h-1.107l2.443-6.548.027-.088.035-.105a.853.853 0 0 0 .035-.185c0-.064-.02-.111-.062-.14l-.052-.018-.036-.009c-.087 0-.26.14-.518.422-.094.106-.193.22-.299.343-.04.053-.079.102-.114.15-.035.04-.065.078-.088.114l-.396.518-.237-.21.37-.528c.837-1.149 1.532-1.723 2.082-1.723.387 0 .58.22.58.66v.105c-.005.058-.017.12-.035.184-.04.188-.108.41-.202.668l-.8 2.048H22.8zm6.873-3.665c.498 0 .908.19 1.23.571.381.44.572 1.07.572 1.89 0 1.406-.434 2.745-1.301 4.017-.809 1.166-1.714 1.749-2.716 1.749-.545 0-.981-.229-1.31-.686-.328-.445-.492-1.04-.492-1.784 0-1.307.422-2.596 1.266-3.867.85-1.26 1.767-1.89 2.75-1.89zm-.826 6.548c.668-1.107 1.174-2.206 1.52-3.296a7.49 7.49 0 0 0 .273-1.08 2.86 2.86 0 0 0 .044-.361c.006-.088.008-.176.008-.264 0-.41-.105-.715-.316-.914a.811.811 0 0 0-.571-.22c-.58 0-1.275.785-2.083 2.356-.446.85-.782 1.65-1.011 2.4-.182.608-.273 1.124-.273 1.546 0 .78.282 1.169.844 1.169.317 0 .633-.164.95-.492a4.27 4.27 0 0 0 .342-.44l.15-.21.061-.097.062-.097zm7.057-2.786c.47.04.847.223 1.134.545.276.299.413.65.413 1.054 0 .704-.305 1.345-.914 1.925-.633.598-1.4.897-2.303.897-1.195 0-1.793-.624-1.793-1.872 0-.61.182-1.333.545-2.171a11.58 11.58 0 0 1 .967-1.784c.446-.657.911-1.184 1.398-1.582.627-.516 1.245-.774 1.854-.774.387 0 .703.091.95.273.263.199.395.48.395.843 0 .516-.232 1.014-.694 1.495-.493.515-1.137.887-1.934 1.116l-.018.035zM34.26 13.78c.527 0 .984-.27 1.37-.808a3.122 3.122 0 0 0 .634-1.89c0-.475-.159-.797-.475-.967-.176-.1-.43-.15-.765-.15-.175 0-.322.015-.439.045a1.696 1.696 0 0 0-.123.035l-.07.035c-.135.082-.276.328-.422.738a5.993 5.993 0 0 0-.15.484l-.096.378-.01.07-.026.097a6.086 6.086 0 0 0-.044.263 4.422 4.422 0 0 0-.061.686c0 .38.08.653.237.817a.508.508 0 0 0 .22.14.836.836 0 0 0 .22.027zm.114-4.078a3.82 3.82 0 0 0 2.241-.861c.686-.557 1.029-1.178 1.029-1.863 0-.24-.059-.422-.176-.545a.438.438 0 0 0-.334-.141c-.34 0-.777.322-1.31.967-.556.662-1.04 1.476-1.45 2.443zm8.227 1.74c-.569 1.026-1.155 1.767-1.758 2.224-.475.37-.95.554-1.424.554-.855 0-1.283-.48-1.283-1.442 0-.615.205-1.33.615-2.144.164-.317.355-.645.571-.985.17-.263.355-.53.554-.8 1.383-1.892 2.643-2.838 3.78-2.838.532 0 .896.258 1.09.773l.764-.773h.589l-2.004 4.482c-.627 1.418-.94 2.256-.94 2.514 0 .17.055.255.166.255h.027c.123-.018.348-.205.676-.563a11.264 11.264 0 0 0 .695-.844l.193-.246.176.194-.483.668c-.112.152-.247.319-.405.5a7.36 7.36 0 0 1-.545.572c-.474.451-.846.677-1.116.677a.466.466 0 0 1-.343-.14c-.117-.118-.175-.282-.175-.493 0-.27.16-.888.483-1.855l.097-.29zm1.66-4.394c0-.475-.216-.712-.65-.712-.445 0-.955.322-1.529.967-.217.24-.44.524-.668.852-.088.13-.179.267-.272.413-.07.106-.147.223-.229.352l-.088.15-.105.166-.238.413c-.205.358-.383.698-.536 1.02-.44.902-.659 1.617-.659 2.144 0 .551.217.827.65.827.3 0 .642-.173 1.029-.519.533-.486 1.116-1.292 1.749-2.417l.017-.026.027-.044a.716.716 0 0 1 .061-.114l.194-.352c.193-.363.369-.706.527-1.028.48-1.008.72-1.705.72-2.092zm6.294 2.61 1.283-3.454h1.107l-2.39 6.46c-.088.234-.132.399-.132.492 0 .059.02.103.061.132l.053.027.097-.01a.117.117 0 0 0 .07-.026c.07-.035.152-.096.246-.184.258-.252.607-.7 1.046-1.345l.246.22c-.592.79-.964 1.268-1.116 1.432-.475.545-.908.818-1.3.818a.55.55 0 0 1-.379-.14c-.14-.118-.21-.294-.21-.528 0-.235.081-.56.245-.976l.923-2.478h-2.153L46.784 14h-1.107l2.443-6.548.027-.088.035-.105a.85.85 0 0 0 .035-.185c0-.064-.02-.111-.062-.14l-.053-.018-.035-.009c-.087 0-.26.14-.518.422-.094.106-.194.22-.299.343a11.2 11.2 0 0 0-.114.15c-.035.04-.065.078-.088.114l-.396.518-.237-.21.37-.528c.837-1.149 1.531-1.723 2.082-1.723.387 0 .58.22.58.66v.105c-.006.058-.017.12-.035.184a5.36 5.36 0 0 1-.202.668l-.8 2.048h2.145zm10.749.097c.468.04.846.223 1.133.545.276.299.414.65.414 1.054 0 .704-.305 1.345-.914 1.925-.633.598-1.4.897-2.303.897-1.196 0-1.793-.624-1.793-1.872 0-.61.181-1.333.545-2.171.275-.633.597-1.228.966-1.784.446-.657.912-1.184 1.398-1.582.627-.516 1.245-.774 1.855-.774.386 0 .703.091.949.273.263.199.395.48.395.843 0 .516-.231 1.014-.694 1.495-.492.515-1.137.887-1.934 1.116l-.017.035zM59.66 13.78c.528 0 .985-.27 1.371-.808a3.122 3.122 0 0 0 .633-1.89c0-.475-.158-.797-.474-.967-.176-.1-.431-.15-.765-.15-.176 0-.322.015-.44.045a1.696 1.696 0 0 0-.123.035l-.07.035c-.135.082-.275.328-.422.738a5.993 5.993 0 0 0-.15.484l-.096.378-.009.07-.026.097a6.086 6.086 0 0 0-.044.263 4.422 4.422 0 0 0-.062.686c0 .38.08.653.238.817a.508.508 0 0 0 .22.14.836.836 0 0 0 .22.027zm.114-4.078a3.82 3.82 0 0 0 2.242-.861c.685-.557 1.028-1.178 1.028-1.863 0-.24-.059-.422-.176-.545a.438.438 0 0 0-.334-.141c-.34 0-.776.322-1.31.967-.556.662-1.04 1.476-1.45 2.443zM72.94 5.94l.176.176-1.837 5.458c-.34.985-.51 1.556-.51 1.714 0 .258.378.416 1.134.475l-.079.237h-3.761l.079-.237c.275-.018.477-.053.606-.106.305-.117.574-.48.809-1.09.17-.445.304-.817.404-1.116l1.371-4.008c-.516.17-1.099.343-1.749.519l-.044-.246c.55-.205 1.154-.48 1.81-.826.692-.364 1.222-.68 1.591-.95zm3.92 6.917c-.421.176-.814.264-1.177.264-.54 0-.99-.179-1.354-.536a1.722 1.722 0 0 1-.536-1.275c0-.697.214-1.485.642-2.364.504-1.049 1.171-1.848 2.004-2.4.492-.316.94-.474 1.344-.474.563 0 1.026.243 1.389.73.375.498.562 1.166.562 2.004 0 1.523-.518 3-1.555 4.43-.95 1.312-2.242 2.399-3.876 3.26-.446.235-.92.437-1.424.607l-.106-.273a9.32 9.32 0 0 0 2.954-2.311 8.829 8.829 0 0 0 1.133-1.662zm1.002-6.442c-.34 0-.673.202-1.002.606-.767.95-1.297 2.145-1.59 3.586a5.373 5.373 0 0 0-.115.994c0 .34.08.609.238.808.152.205.375.308.668.308.591 0 1.122-.478 1.59-1.433.405-.82.692-1.661.862-2.522.105-.51.158-.938.158-1.283 0-.364-.088-.64-.264-.827a.713.713 0 0 0-.545-.237zm9.035-.343-.632 1.855h-4.017l-1.055 2.856a4.488 4.488 0 0 1 1.75-.369c.767 0 1.394.243 1.88.73.48.474.72 1.063.72 1.766 0 .78-.228 1.53-.685 2.25a4.213 4.213 0 0 1-2.214 1.758 4.194 4.194 0 0 1-1.398.237c-.767 0-1.403-.199-1.907-.597-.275-.211-.413-.44-.413-.686a.555.555 0 0 1 .563-.571c.286 0 .617.237.992.712.399.504.806.756 1.222.756.305 0 .618-.115.94-.343.475-.334.853-.85 1.134-1.547a4.05 4.05 0 0 0 .308-1.52c0-.546-.146-.994-.44-1.345-.31-.37-.755-.554-1.335-.554-.493 0-1.04.114-1.644.343l-.167-.167 1.846-4.975h3.058c.147 0 .264.003.352.009h.176c.216 0 .357-.047.422-.14.052-.083.128-.235.228-.458h.316zm6.188.59c-.967 1.452-1.676 2.607-2.127 3.462a28.552 28.552 0 0 0-2.11 5.3c-.21.72-.412 1.192-.606 1.415-.193.21-.413.316-.659.316a.684.684 0 0 1-.501-.21.732.732 0 0 1-.22-.554c0-.551.487-1.641 1.46-3.27.79-1.312 1.9-2.985 3.33-5.018l.115-.176H88.9c-.685 0-1.107.035-1.265.105-.153.088-.287.25-.405.484h-.369c.41-.64.806-1.436 1.187-2.391h.316a2.809 2.809 0 0 0-.07.237.236.236 0 0 0-.018.088c0 .047.012.085.035.114.065.065.258.097.58.097h4.193zm8.165 5.773a8.079 8.079 0 0 1-1.362 1.17c-.627.41-1.196.615-1.705.615-.516 0-.914-.153-1.196-.457-.246-.264-.369-.592-.369-.985 0-.328.085-.644.255-.949.123-.234.305-.472.545-.712.205-.205.469-.43.791-.677l.43-.325.449-.325c.674-.504 1.119-.9 1.336-1.186.246-.329.369-.677.369-1.046 0-.516-.231-.774-.694-.774-.323 0-.654.144-.993.43-.34.288-.627.63-.862 1.03l-.263-.203A6.392 6.392 0 0 1 99.255 6.6c.498-.405 1.011-.607 1.538-.607.393 0 .7.109.923.325.228.217.343.51.343.88 0 .491-.217.96-.651 1.406-.123.128-.653.57-1.59 1.327l-.335.28-.334.291a6.27 6.27 0 0 0-.676.694c-.153.176-.276.36-.37.554a1.73 1.73 0 0 0-.202.773c0 .141.027.27.08.387.023.041.046.08.07.114l.035.044.026.036c.176.187.437.28.782.28.387 0 .777-.114 1.169-.342l.062-.035.088-.053c.076-.047.152-.1.228-.158.217-.17.416-.363.598-.58l.211.22zm5.168-6.442c.498 0 .908.19 1.23.571.381.44.572 1.07.572 1.89 0 1.406-.434 2.745-1.301 4.017-.809 1.166-1.714 1.749-2.716 1.749-.545 0-.981-.229-1.309-.686-.329-.445-.493-1.04-.493-1.784 0-1.307.422-2.596 1.266-3.867.85-1.26 1.767-1.89 2.751-1.89zm-.826 6.548c.668-1.107 1.175-2.206 1.52-3.296a7.51 7.51 0 0 0 .273-1.08 3.87 3.87 0 0 0 .053-.624c0-.411-.106-.716-.317-.915a.811.811 0 0 0-.571-.22c-.58 0-1.275.785-2.083 2.356-.446.85-.782 1.65-1.011 2.4-.182.608-.272 1.124-.272 1.546 0 .78.281 1.169.843 1.169.317 0 .633-.164.95-.492.111-.123.225-.27.342-.44l.15-.21.061-.097.062-.097zM113.599.983a3.594 3.594 0 0 1 1.327.994c.715.826 1.072 1.919 1.072 3.278 0 1.031-.199 2.203-.598 3.516-.38 1.271-.84 2.331-1.379 3.181-.458.71-.973 1.266-1.547 1.67-.563.399-1.099.598-1.609.598-1.06 0-1.591-.847-1.591-2.54l.009-.246c0-.112.006-.226.018-.343.035-.305.091-.607.167-.905a6.232 6.232 0 0 1 1.09-2.303 5.302 5.302 0 0 1 1.538-1.389c.574-.334 1.113-.5 1.617-.5.281 0 .518.06.712.184.146.088.263.21.351.369.211-.797.317-1.53.317-2.197a4.59 4.59 0 0 0-.106-1.037 2.947 2.947 0 0 0-.448-1.082 2.794 2.794 0 0 0-1.143-.958l.203-.29zm.061 5.423c-.767 0-1.547.785-2.338 2.356-.515 1.043-.879 1.965-1.09 2.768-.07.282-.12.534-.149.756-.012.088-.021.17-.026.246v.176c0 .78.281 1.169.843 1.169.293 0 .592-.15.897-.448.205-.2.431-.495.677-.888a13.805 13.805 0 0 0 1.511-3.296l.018-.053.018-.07c.017-.07.035-.135.052-.193l.132-.528c.111-.498.167-.876.167-1.133 0-.293-.076-.516-.228-.668a.656.656 0 0 0-.484-.194zm5.81 6.785c.381-.709.694-1.444.94-2.206.305-.92.457-1.714.457-2.381 0-.317-.047-.756-.14-1.319l-.088-.571c0-.469.202-.703.606-.703a.554.554 0 0 1 .378.14c.158.153.237.416.237.791 0 .229-.032.513-.096.853-.024.129-.05.258-.079.387a2.95 2.95 0 0 1-.071.255c-.275 1.119-.882 2.745-1.819 4.878-.68 1.54-1.239 2.61-1.679 3.208-.662.908-1.397 1.362-2.206 1.362-.627 0-.94-.24-.94-.72 0-.44.19-.66.571-.66.164 0 .363.12.598.36l.114.115.123.114c.1.088.205.132.316.132.241 0 .478-.109.712-.326.293-.27.528-.67.703-1.204a7.18 7.18 0 0 0 .317-1.626c.023-.24.041-.5.053-.782v-1.125a34.72 34.72 0 0 0-.071-2.04c-.082-1.33-.231-2.275-.448-2.838-.111-.287-.234-.43-.369-.43-.193 0-.387.22-.58.659-.071.152-.141.34-.211.562l-.088.264-.035.123-.027.105-.167.536-.29-.105.255-.87c.246-.815.551-1.4.914-1.758.258-.252.534-.378.827-.378.498 0 .846.513 1.045 1.538.17.856.255 2.195.255 4.017v.756l-.017.887z" fill="currentColor" />
   
  </symbol>

</svg>