<svg width="225" height="50" viewBox="0 0 225 50" fill="none" xmlns="http://www.w3.org/2000/svg">
  <symbol id="index" width="100%" height="100%" viewBox="0 0 225 50">
    <path d="m14.836.883.176.44c-1.16.34-2.227.937-3.2 1.792-.96.844-1.916 2.016-2.865 3.516a31.373 31.373 0 0 0-3.638 7.98c-.528 1.793-.791 3.457-.791 4.992 0 2.122.586 3.692 1.757 4.711.938.82 2.121 1.23 3.551 1.23 3.07 0 5.983-1.886 8.736-5.66 1.7-2.32 3-4.845 3.903-7.575.62-1.887.931-3.64.931-5.256 0-1.922-.539-3.31-1.617-4.166-.785-.621-1.699-.932-2.742-.932-1.324 0-2.607.475-3.85 1.424-1.394 1.066-2.425 2.455-3.093 4.166-.364.914-.545 1.728-.545 2.443 0 .715.164 1.336.492 1.864.328.527.75.79 1.266.79.527 0 .843-.34.949-1.019.094-.55.434-.826 1.02-.826.445 0 .82.164 1.124.492.247.27.37.586.37.95 0 .527-.217 1.025-.65 1.493-.599.633-1.354.95-2.268.95-.915 0-1.688-.31-2.32-.932-.692-.691-1.038-1.652-1.038-2.883 0-2.004.873-4.078 2.62-6.222.96-1.172 2.044-2.11 3.251-2.813 1.348-.785 2.713-1.178 4.096-1.178 1.254 0 2.396.387 3.428 1.16.937.715 1.623 1.764 2.056 3.147.317.996.475 2.074.475 3.234 0 2.649-.662 5.303-1.986 7.963-1.57 3.14-3.862 5.643-6.873 7.506-2.59 1.605-5.186 2.408-7.788 2.408-2.437 0-4.388-.867-5.853-2.601-1.395-1.63-2.092-3.68-2.092-6.153 0-2.097.557-4.33 1.67-6.697C5.443 6.508 8.18 3.607 11.707 1.92A13.44 13.44 0 0 1 14.836.883zm13.127 17.3.03-.078.029-.087.068-.215c.052-.19.078-.316.078-.381v-.059l-.02-.088c-.026-.078-.068-.117-.127-.117-.26 0-.777.602-1.552 1.807l-.235.351-.273-.195.039-.058.04-.069.107-.185.312-.498c.3-.47.557-.84.771-1.114.04-.045.075-.09.108-.136l.146-.166a3.55 3.55 0 0 1 .371-.342c.339-.274.665-.41.977-.41h.078l.078.02a.54.54 0 0 1 .196.087c.15.117.224.313.224.586 0 .247-.058.583-.176 1.006-.045.156-.094.319-.146.488-.04.124-.081.241-.127.352l-.576 1.62c.547-1.04 1.142-1.936 1.787-2.685.853-1.009 1.611-1.514 2.275-1.514h.098l.127.02c.11.02.208.055.293.107.234.144.352.4.352.772 0 .293-.118.752-.352 1.377l-.791 2.119c.293-.508.58-.977.86-1.406.37-.573.709-1.045 1.015-1.416l.166-.186a6.662 6.662 0 0 1 .781-.762c.521-.416 1-.624 1.436-.624.547 0 .82.306.82.918 0 .293-.078.657-.234 1.093l-.215.557-.225.547-1.572 3.877c-.202.514-.303.83-.303.947v.049l.01.068c.02.052.052.078.098.078.319 0 .859-.573 1.62-1.718l.274.244-.137.185-.146.205-.303.42c-.24.313-.465.58-.674.801-.546.58-1.035.87-1.465.87a.602.602 0 0 1-.498-.235.782.782 0 0 1-.156-.489c0-.28.095-.66.283-1.142.059-.163.137-.361.235-.596l.127-.273.097-.254 1.485-3.594c.26-.644.39-1.077.39-1.299 0-.267-.107-.4-.322-.4-.286 0-.703.316-1.25.947-.677.788-1.41 1.918-2.197 3.389a39.816 39.816 0 0 0-1.7 3.701h-1.22l2.51-6.7c.02-.051.039-.113.058-.185l.078-.244c.066-.215.098-.377.098-.488 0-.28-.104-.42-.312-.42-.528 0-1.296.797-2.305 2.392-1.061 1.66-1.976 3.542-2.744 5.645h-1.211l2.539-6.816zm12.88-1.083c-.149.078-.289.162-.42.253a5.94 5.94 0 0 0-.517.41 7.54 7.54 0 0 0-1.27 1.495l-.253-.215a6.22 6.22 0 0 1 .986-1.377 4.954 4.954 0 0 1 1.71-1.201l.614-1.787 1.455-.616-.722 2.061a2.43 2.43 0 0 1 .693-.088c.762 0 1.367.293 1.816.88.463.585.694 1.392.694 2.42 0 .235-.016.473-.049.714a7.164 7.164 0 0 1-.156.908 6.806 6.806 0 0 1-.918 2.1c-.964 1.471-2.09 2.207-3.379 2.207-.26 0-.514-.05-.762-.147a2.395 2.395 0 0 1-.84-.556l-1.084 3.095a1.033 1.033 0 0 0-.039.127l-.049.176a1.734 1.734 0 0 0-.058.361c0 .43.355.645 1.064.645h.215l-.049.332h-4.12l.077-.332.723-.127c.41-.072.736-.443.977-1.113L40.844 17.1zm-1.19 7.06c.429.41.862.615 1.298.615.332 0 .67-.12 1.016-.36.449-.326.879-.85 1.289-1.573.775-1.335 1.162-2.676 1.162-4.024 0-.833-.189-1.438-.566-1.816a1.38 1.38 0 0 0-.508-.322 1.565 1.565 0 0 0-.498-.078c-.091 0-.205.01-.342.029l-.156.03-.059.009-.039.01-2.598 7.48zm11.318-2.002c-.632 1.14-1.283 1.963-1.953 2.47-.528.411-1.055.616-1.583.616-.95 0-1.425-.534-1.425-1.601 0-.684.228-1.478.683-2.383.183-.352.394-.716.635-1.094.189-.293.394-.59.615-.889 1.537-2.103 2.937-3.154 4.2-3.154.592 0 .996.287 1.21.86l.85-.86h.654l-2.226 4.98c-.697 1.576-1.045 2.507-1.045 2.793 0 .19.062.284.186.284h.029c.136-.02.387-.228.752-.625a12.57 12.57 0 0 0 .771-.938l.215-.273.195.215-.537.742c-.123.17-.273.355-.449.556a8.15 8.15 0 0 1-.605.635c-.528.502-.941.752-1.24.752a.518.518 0 0 1-.381-.156c-.13-.13-.196-.313-.196-.547 0-.3.18-.986.537-2.06l.108-.323zm1.845-4.883c0-.527-.24-.79-.722-.79-.495 0-1.061.357-1.7 1.074-.24.267-.488.582-.742.947-.097.143-.198.296-.302.459-.078.117-.163.247-.254.39l-.098.166-.117.186c-.091.156-.18.31-.264.459-.228.397-.426.775-.595 1.133-.489 1.002-.733 1.797-.733 2.383 0 .612.24.918.723.918.332 0 .713-.192 1.142-.577.593-.54 1.24-1.435 1.944-2.685l.02-.03.029-.048a.789.789 0 0 1 .068-.127l.215-.39c.215-.404.41-.785.586-1.143.534-1.12.8-1.895.8-2.325zm6.944-6.738a3.998 3.998 0 0 1 1.474 1.104c.795.918 1.192 2.132 1.192 3.642 0 1.146-.222 2.448-.664 3.906-.423 1.413-.934 2.592-1.534 3.536-.507.787-1.08 1.406-1.718 1.855-.625.443-1.22.664-1.787.664-1.179 0-1.768-.94-1.768-2.822l.01-.274c0-.123.006-.25.02-.38.038-.339.1-.674.185-1.006a6.928 6.928 0 0 1 1.21-2.559 5.899 5.899 0 0 1 1.71-1.543c.638-.37 1.237-.556 1.797-.556.312 0 .576.068.79.205.163.097.294.234.391.41.235-.886.352-1.7.352-2.442 0-.43-.04-.813-.117-1.152a3.273 3.273 0 0 0-.498-1.201 3.105 3.105 0 0 0-1.27-1.065l.225-.322zm.068 6.025c-.853 0-1.719.873-2.598 2.618-.572 1.159-.976 2.184-1.21 3.076a7.606 7.606 0 0 0-.167.84 4.968 4.968 0 0 0-.029.273v.195c0 .866.313 1.3.938 1.3.325 0 .657-.167.996-.499.228-.221.478-.55.752-.986a15.363 15.363 0 0 0 1.68-3.662l.019-.059.02-.078c.019-.078.039-.15.058-.215l.147-.586c.123-.553.185-.973.185-1.26 0-.325-.084-.572-.254-.742a.729.729 0 0 0-.537-.215zm7.813 3.614 1.425-3.838h1.23l-2.655 7.178c-.098.26-.147.442-.147.547 0 .065.023.113.069.146l.058.03.108-.01a.13.13 0 0 0 .078-.03 1.23 1.23 0 0 0 .273-.205c.287-.28.674-.778 1.162-1.494l.274.244c-.658.879-1.071 1.41-1.24 1.592-.528.605-1.01.908-1.446.908a.61.61 0 0 1-.42-.156c-.156-.13-.234-.326-.234-.586 0-.26.09-.622.273-1.084l1.026-2.754h-2.393L63.452 25H62.22l2.715-7.275.029-.098.039-.117a.95.95 0 0 0 .039-.205c0-.072-.023-.124-.068-.157l-.059-.02-.039-.009c-.098 0-.29.156-.576.469-.104.117-.215.244-.332.38l-.127.167c-.04.045-.072.088-.098.127l-.44.576-.263-.235.41-.585c.931-1.277 1.703-1.915 2.315-1.915.43 0 .644.245.644.733v.117a1.27 1.27 0 0 1-.039.205c-.045.208-.12.456-.224.742l-.89 2.276h2.384zm4.462.84c.476-.274.931-.583 1.368-.928.547-.436 1-.886 1.357-1.348a1.34 1.34 0 0 0 .088-.117l.117-.166c.091-.15.173-.293.244-.43.209-.403.313-.758.313-1.064 0-.202-.056-.348-.166-.44a.43.43 0 0 0-.147-.068.287.287 0 0 0-.107-.02c-.39 0-.876.407-1.455 1.221-.645.899-1.182 2.018-1.612 3.36zm2.872 1.504c-.163.286-.339.57-.528.85-.24.35-.462.64-.664.868-.58.638-1.195.957-1.846.957-.455 0-.836-.136-1.142-.41-.378-.338-.567-.84-.567-1.504v-.244c.007-.11.02-.221.04-.332.039-.312.107-.635.205-.967.28-.957.774-1.963 1.484-3.017.514-.756 1.01-1.345 1.484-1.768.645-.566 1.263-.85 1.856-.85.404 0 .71.124.918.372.182.208.273.475.273.8 0 .32-.088.638-.263.957a3.368 3.368 0 0 1-.235.362 4.45 4.45 0 0 1-.244.283c-.508.553-1.201 1.11-2.08 1.67a23.61 23.61 0 0 1-.996.576 6.16 6.16 0 0 1-.41.215c-.11.058-.218.114-.323.166-.169.56-.29 1.045-.36 1.455-.027.15-.046.293-.06.43-.006.09-.01.182-.01.273v.117l.01.147c.014.137.043.254.089.351.117.293.338.44.663.44.404 0 .853-.264 1.348-.791.195-.209.404-.466.625-.772.156-.221.335-.485.537-.79l.196.155zm6.552-2.344 1.426-3.838h1.23l-2.656 7.178c-.097.26-.146.442-.146.547 0 .065.023.113.068.146l.059.03.107-.01a.13.13 0 0 0 .078-.03c.079-.039.17-.107.274-.205.286-.28.674-.778 1.162-1.494l.273.244c-.657.879-1.07 1.41-1.24 1.592-.527.605-1.009.908-1.445.908a.61.61 0 0 1-.42-.156c-.156-.13-.234-.326-.234-.586 0-.26.09-.622.273-1.084l1.025-2.754H78.97L77.338 25h-1.23l2.714-7.275.03-.098.039-.117a.944.944 0 0 0 .039-.205c0-.072-.023-.124-.069-.157l-.058-.02-.04-.009c-.097 0-.289.156-.576.469-.104.117-.214.244-.331.38l-.127.167a1.343 1.343 0 0 0-.098.127l-.44.576-.263-.235.41-.585c.93-1.277 1.702-1.915 2.314-1.915.43 0 .645.245.645.733v.117c-.007.065-.02.134-.04.205-.045.208-.12.456-.224.742l-.889 2.276h2.383zm7.344 2.383c-.963 1.777-1.989 2.666-3.076 2.666-.664 0-1.133-.28-1.406-.84a2.333 2.333 0 0 1-.196-.645 3.222 3.222 0 0 1-.029-.263l-.01-.176c0-.749.186-1.566.557-2.451.3-.697.687-1.387 1.162-2.07 1.218-1.771 2.438-2.657 3.662-2.657.768 0 1.153.313 1.153.938 0 .52-.228.78-.684.78-.384 0-.576-.214-.576-.644 0-.104.023-.208.068-.312l.03-.05.029-.058a.345.345 0 0 0 .029-.136.172.172 0 0 0-.049-.127c-.045-.052-.11-.078-.195-.078-.632 0-1.263.5-1.895 1.503-.214.346-.44.759-.673 1.24a20.393 20.393 0 0 0-.811 1.905c-.436 1.172-.654 2.05-.654 2.637 0 .761.24 1.142.722 1.142.424 0 .899-.283 1.426-.85.371-.397.775-.94 1.211-1.63l.205.176zm8.233.341c-.209.372-.466.785-.772 1.24-.228.32-.433.557-.615.713-.28.228-.563.342-.85.342-.26 0-.459-.127-.596-.38-.123-.222-.185-.499-.185-.83v-.147l.098-2.002v-.098c0-.729-.32-1.093-.957-1.093h-.362L91.235 25h-1.202l2.451-6.543c.118-.306.196-.55.235-.732.039-.13.058-.238.058-.323 0-.097-.02-.166-.058-.205a.145.145 0 0 0-.108-.039.329.329 0 0 0-.146.04 1.472 1.472 0 0 0-.244.175c-.241.228-.537.615-.889 1.162l-.488.762-.274-.176.4-.664c.183-.293.349-.55.499-.771.208-.3.407-.554.596-.762.488-.534.934-.801 1.337-.801.436 0 .655.3.655.898 0 .287-.062.586-.186.899l-.85 2.275h.713c.267 0 .521-.097.762-.293a2.82 2.82 0 0 0 .547-.644c.195-.28.469-.82.82-1.621l.118-.274.126-.263c.098-.196.196-.359.293-.489.254-.325.56-.488.918-.488.26 0 .466.085.616.254a.735.735 0 0 1 .205.527.69.69 0 0 1-.205.508.633.633 0 0 1-.45.186.595.595 0 0 1-.507-.254c-.098-.137-.176-.205-.235-.205-.117 0-.23.088-.342.263a7.124 7.124 0 0 0-.351.635l-.108.254-.097.234c-.15.391-.332.736-.547 1.036-.28.39-.602.677-.967.859.684.358 1.026 1.006 1.026 1.943v.078l-.04 1.377c0 .241.085.362.254.362.17 0 .39-.186.664-.557.293-.404.498-.713.616-.928l.254.205zm6.669-.84c-.41 1.088-.615 1.713-.615 1.876 0 .104.023.175.069.214l.058.03h.029c.118 0 .277-.111.479-.332.28-.306.658-.82 1.133-1.543l.176-.284.273.176c-.059.104-.13.225-.215.362l-.312.507c-.287.443-.531.795-.733 1.055-.221.293-.446.53-.674.713-.306.24-.599.361-.879.361-.449 0-.673-.23-.673-.693 0-.228.097-.622.293-1.182l.771-2.285a24.46 24.46 0 0 1-.791 1.358c-.345.533-.677.983-.996 1.347-.339.41-.69.749-1.055 1.016-.455.325-.872.488-1.25.488-.553 0-.83-.31-.83-.928 0-.227.04-.481.117-.761.033-.104.072-.215.118-.332.026-.078.061-.166.107-.264l2.09-5.264.039-.088.029-.117a.943.943 0 0 0 .039-.215c0-.065-.022-.113-.068-.146l-.049-.02-.039-.01c-.104 0-.299.157-.586.47-.104.117-.212.244-.322.38a3.674 3.674 0 0 1-.137.166 2.159 2.159 0 0 1-.097.127l-.43.576-.274-.234.42-.605c.026-.046.065-.101.118-.166a3.32 3.32 0 0 1 .195-.254c.182-.235.37-.45.566-.645.554-.553 1.029-.83 1.426-.83.436 0 .654.244.654.732 0 .274-.211.935-.635 1.983l-1.728 4.238-.088.205-.068.215a1.851 1.851 0 0 0-.078.527c0 .267.1.4.302.4.384 0 1.036-.628 1.953-1.884 1.114-1.556 2.142-3.61 3.086-6.162h1.221l-2.139 5.723zm8.106 0c-.41 1.088-.615 1.713-.615 1.876 0 .104.026.175.078.214l.058.03h.03c.11 0 .27-.111.478-.332.28-.306.654-.82 1.123-1.543l.186-.284.273.176a12.65 12.65 0 0 0-.215.362c-.11.169-.218.338-.322.507-.28.443-.524.795-.732 1.055-.222.293-.443.53-.664.713-.306.24-.603.361-.889.361-.443 0-.664-.23-.664-.693 0-.228.094-.622.283-1.182l.781-2.285c-.254.469-.52.921-.8 1.358-.345.533-.674.983-.987 1.347-.338.41-.693.749-1.064 1.016-.449.325-.866.488-1.25.488-.554 0-.83-.31-.83-.928 0-.227.042-.481.127-.761.032-.104.071-.215.117-.332a4.13 4.13 0 0 1 .098-.264l2.099-5.264.029-.088.039-.117a.904.904 0 0 0 .04-.215c0-.065-.023-.113-.069-.146l-.049-.02-.048-.01c-.098 0-.29.157-.577.47-.104.117-.214.244-.332.38l-.127.166a1.33 1.33 0 0 0-.097.127l-.43.576-.273-.234.41-.605.117-.166.195-.254a9.51 9.51 0 0 1 .567-.645c.56-.553 1.038-.83 1.435-.83.43 0 .645.244.645.732 0 .274-.209.935-.625 1.983l-1.739 4.238-.078.205-.078.215a1.851 1.851 0 0 0-.078.527c0 .267.104.4.313.4.384 0 1.031-.628 1.943-1.884 1.113-1.556 2.142-3.61 3.086-6.162h1.23l-2.148 5.723zm3.144-10.663c-.377.742-.885 1.328-1.523 1.757-.605.404-1.237.606-1.895.606-.54 0-.966-.143-1.279-.43a1.283 1.283 0 0 1-.41-.967c0-.332.091-.608.273-.83a.899.899 0 0 1 .713-.332c.41 0 .616.199.616.596 0 .143-.026.26-.079.351l-.078.108-.078.088-.088.078-.078.098a.432.432 0 0 0-.088.263c0 .143.065.27.196.381.143.13.332.195.566.195.501 0 1.022-.195 1.563-.586a4.6 4.6 0 0 0 1.376-1.572l.293.195zM5.801 42.06c-.41 1.088-.615 1.713-.615 1.875 0 .105.022.176.068.215l.059.03h.029c.117 0 .276-.111.478-.332.28-.306.658-.82 1.133-1.543l.176-.283.273.175c-.058.104-.13.225-.215.362l-.312.507c-.286.443-.53.795-.732 1.055-.222.293-.446.53-.674.713-.306.24-.6.361-.88.361-.448 0-.673-.23-.673-.693 0-.228.098-.622.293-1.182l.771-2.285c-.253.469-.517.921-.79 1.358-.346.533-.678.983-.997 1.347-.338.41-.69.749-1.054 1.016-.456.325-.873.488-1.25.488-.554 0-.83-.31-.83-.928 0-.227.039-.481.117-.761a5.17 5.17 0 0 1 .117-.332 2.5 2.5 0 0 1 .107-.264l2.09-5.264.04-.088.029-.117a.94.94 0 0 0 .039-.215c0-.065-.023-.114-.069-.146l-.049-.02-.039-.01c-.104 0-.3.157-.586.47-.104.116-.211.243-.322.38a3.667 3.667 0 0 1-.137.166 2.159 2.159 0 0 1-.097.127l-.43.576-.273-.234.42-.606c.026-.045.065-.1.117-.166.058-.084.124-.169.195-.253a6.9 6.9 0 0 1 .567-.645c.553-.553 1.028-.83 1.425-.83.437 0 .655.244.655.732 0 .274-.212.935-.635 1.983L1.61 43.037l-.088.205-.068.215a1.848 1.848 0 0 0-.078.527c0 .267.1.4.303.4.384 0 1.035-.627 1.953-1.884 1.113-1.556 2.142-3.61 3.086-6.162h1.22L5.801 42.06zm6.816.499c-.963 1.777-1.989 2.666-3.076 2.666-.664 0-1.133-.28-1.406-.84a2.337 2.337 0 0 1-.196-.645 3.263 3.263 0 0 1-.029-.263L7.9 43.3c0-.749.186-1.566.557-2.451.3-.697.687-1.387 1.162-2.07 1.218-1.772 2.438-2.657 3.662-2.657.768 0 1.153.313 1.153.938 0 .52-.228.78-.684.78-.384 0-.576-.214-.576-.644 0-.104.023-.208.068-.312l.03-.05.029-.058a.345.345 0 0 0 .03-.136.171.171 0 0 0-.05-.127c-.045-.052-.11-.079-.195-.079-.632 0-1.263.502-1.895 1.505-.214.345-.439.758-.673 1.24a20.393 20.393 0 0 0-.811 1.904c-.436 1.172-.654 2.05-.654 2.637 0 .761.24 1.142.722 1.142.424 0 .899-.283 1.426-.85.371-.396.775-.94 1.211-1.63l.205.176zm3.701-4.375.03-.078.029-.088.068-.215c.052-.19.078-.316.078-.381v-.059l-.02-.088c-.025-.078-.067-.117-.126-.117-.26 0-.778.602-1.553 1.807l-.234.351-.274-.195.04-.059.039-.068c.039-.065.074-.127.107-.185l.313-.498c.299-.47.556-.84.77-1.114.04-.045.076-.09.108-.137l.147-.166a3.55 3.55 0 0 1 .37-.341c.34-.274.665-.41.977-.41h.079l.078.02a.54.54 0 0 1 .195.087c.15.117.225.313.225.586 0 .247-.059.583-.176 1.006-.046.156-.095.319-.147.488-.039.124-.081.241-.127.352l-.576 1.62c.547-1.04 1.143-1.936 1.787-2.685.853-1.009 1.612-1.514 2.276-1.514h.097l.127.02a.83.83 0 0 1 .293.108c.235.143.352.4.352.771 0 .293-.117.752-.352 1.377l-.79 2.119c.292-.508.579-.976.859-1.406.37-.573.71-1.045 1.015-1.416l.166-.186a6.662 6.662 0 0 1 .781-.762c.521-.416 1-.625 1.436-.625.547 0 .82.306.82.919 0 .293-.078.657-.234 1.093l-.215.557-.224.547-1.573 3.877c-.201.514-.302.83-.302.947v.049l.01.068c.019.052.052.078.097.078.32 0 .86-.573 1.621-1.718l.274.244-.137.185-.147.205-.302.42c-.241.313-.466.58-.674.801-.547.58-1.035.87-1.465.87a.603.603 0 0 1-.498-.235.783.783 0 0 1-.156-.488c0-.28.094-.661.283-1.143.058-.163.137-.361.234-.596l.127-.273.098-.254 1.484-3.594c.26-.644.39-1.077.39-1.299 0-.267-.107-.4-.321-.4-.287 0-.704.316-1.25.947-.678.788-1.41 1.918-2.198 3.389A39.816 39.816 0 0 0 18.828 45h-1.22l2.51-6.7c.019-.051.038-.113.058-.185l.078-.244c.065-.215.098-.378.098-.488 0-.28-.105-.42-.313-.42-.527 0-1.296.797-2.305 2.392-1.06 1.66-1.976 3.542-2.744 5.645h-1.21l2.538-6.816zm14.522-2.08c.553 0 1.009.211 1.367.634.423.489.635 1.188.635 2.1 0 1.562-.482 3.05-1.445 4.463-.899 1.295-1.905 1.943-3.018 1.943-.606 0-1.09-.254-1.455-.762-.365-.494-.547-1.155-.547-1.982 0-1.452.469-2.884 1.406-4.297.944-1.4 1.963-2.1 3.057-2.1zm-.918 7.275c.742-1.23 1.305-2.451 1.69-3.662.143-.443.244-.843.302-1.201.026-.144.042-.277.049-.4.006-.098.01-.196.01-.294 0-.456-.117-.794-.352-1.015a.902.902 0 0 0-.635-.245c-.644 0-1.416.873-2.314 2.618-.495.944-.87 1.832-1.123 2.666-.202.677-.303 1.25-.303 1.719 0 .865.313 1.298.938 1.298.351 0 .703-.182 1.054-.547.124-.136.25-.3.381-.488l.166-.234.069-.108.068-.107zm6.894-6.28c-.15.079-.29.163-.42.255a5.94 5.94 0 0 0-.517.41c-.45.397-.872.895-1.27 1.494l-.254-.215a6.22 6.22 0 0 1 .987-1.377 4.954 4.954 0 0 1 1.709-1.201l.615-1.787 1.455-.615-.723 2.06c.196-.058.427-.088.694-.088.761 0 1.367.293 1.816.88.462.585.694 1.392.694 2.42 0 .235-.017.473-.05.714a7.146 7.146 0 0 1-.155.908 6.804 6.804 0 0 1-.919 2.1c-.963 1.471-2.09 2.207-3.378 2.207-.26 0-.515-.05-.762-.147a2.396 2.396 0 0 1-.84-.556l-1.084 3.095a.999.999 0 0 0-.039.127l-.049.176c-.039.163-.058.283-.058.361 0 .43.354.645 1.064.645h.215l-.049.332h-4.121l.078-.332.723-.127c.41-.072.735-.443.976-1.113L36.816 37.1zm-1.191 7.061c.43.41.863.615 1.299.615.332 0 .67-.12 1.016-.36.449-.326.878-.85 1.288-1.573.775-1.335 1.163-2.676 1.163-4.024 0-.833-.19-1.438-.567-1.816a1.38 1.38 0 0 0-.508-.322 1.564 1.564 0 0 0-.498-.078c-.09 0-.205.01-.341.029l-.157.03-.058.009-.04.01-2.597 7.48zm12.617-2.1c-.41 1.088-.615 1.713-.615 1.875 0 .105.023.176.068.215l.059.03h.03c.116 0 .276-.111.478-.332.28-.306.657-.82 1.133-1.543l.175-.283.274.175c-.059.104-.13.225-.215.362l-.313.507c-.286.443-.53.795-.732 1.055-.221.293-.446.53-.674.713-.306.24-.599.361-.879.361-.449 0-.674-.23-.674-.693 0-.228.098-.622.293-1.182l.772-2.285c-.254.469-.518.921-.791 1.358-.345.533-.677.983-.996 1.347a5.91 5.91 0 0 1-1.055 1.016c-.456.325-.872.488-1.25.488-.553 0-.83-.31-.83-.928 0-.227.04-.481.117-.761.033-.105.072-.215.117-.332.026-.078.062-.166.108-.264l2.09-5.264.039-.088.029-.117a.944.944 0 0 0 .04-.215c0-.065-.024-.114-.07-.146l-.048-.02-.04-.01c-.103 0-.299.157-.585.47-.104.116-.212.243-.322.38a3.674 3.674 0 0 1-.137.166 2.159 2.159 0 0 1-.098.127l-.43.576-.273-.234.42-.606c.026-.045.065-.1.117-.166a3.32 3.32 0 0 1 .196-.253c.182-.235.37-.45.566-.645.553-.553 1.029-.83 1.426-.83.436 0 .654.244.654.732 0 .274-.212.935-.635 1.983l-1.728 4.238-.088.205-.069.215a1.848 1.848 0 0 0-.078.527c0 .267.101.4.303.4.384 0 1.035-.627 1.953-1.884 1.114-1.556 2.142-3.61 3.086-6.162h1.22l-2.138 5.722zm9.17.84c-.208.372-.465.785-.771 1.24-.228.32-.433.557-.616.713-.28.228-.563.342-.85.342-.26 0-.458-.127-.595-.38-.124-.222-.185-.499-.185-.83v-.147l.097-2.002v-.098c0-.729-.319-1.093-.957-1.093h-.361L51.543 45h-1.201l2.451-6.543c.117-.306.195-.55.234-.732.04-.13.059-.238.059-.323 0-.097-.02-.166-.059-.205a.145.145 0 0 0-.107-.039.329.329 0 0 0-.147.04 1.472 1.472 0 0 0-.244.175c-.24.228-.537.615-.888 1.162l-.489.762-.273-.176.4-.664c.183-.293.349-.55.498-.772.209-.299.407-.553.596-.761.488-.534.934-.801 1.338-.801.436 0 .654.3.654.899 0 .286-.062.585-.185.898l-.85 2.275h.713c.267 0 .52-.097.762-.293a2.82 2.82 0 0 0 .547-.644c.195-.28.468-.82.82-1.621l.117-.274.127-.263c.098-.196.195-.358.293-.489.254-.325.56-.488.918-.488.26 0 .465.085.615.254a.735.735 0 0 1 .205.527.69.69 0 0 1-.205.508.633.633 0 0 1-.449.186.595.595 0 0 1-.508-.254c-.097-.137-.176-.205-.234-.205-.117 0-.231.088-.342.263a7.124 7.124 0 0 0-.352.635l-.107.254-.098.234c-.15.391-.332.736-.547 1.035-.28.391-.602.678-.966.86.683.358 1.025 1.006 1.025 1.943v.078l-.039 1.377c0 .241.085.362.254.362.17 0 .39-.186.664-.557.293-.404.498-.713.615-.928l.254.205zm5.674-6.797c.553 0 1.01.212 1.367.635.423.489.635 1.188.635 2.1 0 1.562-.482 3.05-1.445 4.463-.899 1.295-1.905 1.943-3.018 1.943-.605 0-1.09-.254-1.455-.762-.365-.494-.547-1.155-.547-1.982 0-1.452.469-2.884 1.406-4.297.944-1.4 1.963-2.1 3.057-2.1zm-.918 7.276c.742-1.23 1.305-2.451 1.69-3.662.143-.443.244-.843.302-1.201.026-.144.043-.277.049-.4.007-.098.01-.196.01-.294 0-.456-.117-.794-.352-1.015a.902.902 0 0 0-.635-.245c-.644 0-1.416.873-2.314 2.618-.495.944-.87 1.832-1.123 2.666-.202.677-.303 1.25-.303 1.719 0 .865.313 1.298.938 1.298.351 0 .703-.182 1.054-.547.124-.136.251-.3.381-.488l.166-.234.069-.108.068-.107zm8.418-4.072-.41 1.084h-4.258l.42-1.084h4.248zm4.072 2.851c-.631 1.14-1.282 1.963-1.953 2.47-.527.411-1.055.616-1.582.616-.95 0-1.426-.534-1.426-1.601 0-.684.228-1.478.684-2.383.182-.352.394-.716.635-1.094.188-.293.393-.59.615-.889 1.536-2.102 2.936-3.154 4.2-3.154.591 0 .995.287 1.21.86l.85-.86h.654l-2.227 4.98c-.696 1.576-1.045 2.507-1.045 2.794 0 .188.062.283.186.283h.03c.136-.02.387-.228.751-.625a12.57 12.57 0 0 0 .772-.938l.215-.273.195.215-.537.742c-.124.17-.274.355-.45.556a8.15 8.15 0 0 1-.605.635c-.527.502-.94.752-1.24.752a.518.518 0 0 1-.381-.156c-.13-.13-.195-.313-.195-.547 0-.3.179-.986.537-2.06l.107-.323zm1.846-4.883c0-.527-.241-.79-.723-.79-.495 0-1.06.357-1.699 1.074-.24.267-.488.582-.742.947-.098.143-.199.296-.303.459-.078.117-.163.247-.254.39l-.097.167-.118.185c-.09.156-.179.31-.263.459-.228.397-.427.775-.596 1.133-.488 1.002-.732 1.797-.732 2.383 0 .612.24.918.722.918.332 0 .713-.192 1.143-.577.592-.54 1.24-1.435 1.943-2.685l.02-.03.029-.048a.789.789 0 0 1 .068-.127l.215-.39c.215-.404.41-.785.586-1.143.534-1.12.8-1.895.8-2.325zm4.941-.175c-.15.078-.29.162-.42.253a5.94 5.94 0 0 0-.517.41c-.45.398-.873.896-1.27 1.495l-.254-.215a6.22 6.22 0 0 1 .987-1.377 4.954 4.954 0 0 1 1.709-1.201l.615-1.787 1.455-.615-.723 2.06c.196-.058.427-.088.694-.088.761 0 1.367.293 1.816.88.462.585.694 1.392.694 2.42 0 .235-.017.473-.05.714a7.146 7.146 0 0 1-.156.908 6.804 6.804 0 0 1-.918 2.1c-.963 1.471-2.09 2.207-3.379 2.207-.26 0-.514-.05-.761-.147a2.395 2.395 0 0 1-.84-.556l-1.084 3.095a.999.999 0 0 0-.04.127l-.048.176c-.039.163-.058.283-.058.361 0 .43.354.645 1.064.645h.215l-.049.332h-4.121l.078-.332.723-.127c.41-.072.735-.443.976-1.113L81.445 37.1zm-1.191 7.06c.43.41.862.615 1.299.615.332 0 .67-.12 1.015-.36.45-.326.88-.85 1.29-1.573.774-1.335 1.161-2.676 1.161-4.024 0-.833-.188-1.438-.566-1.816a1.38 1.38 0 0 0-.508-.322 1.564 1.564 0 0 0-.498-.078c-.09 0-.205.01-.341.029l-.157.03-.058.009-.04.01-2.597 7.48zm10.38-2.558-.292.586-.313.615c-.254.469-.491.862-.713 1.181-.573.84-1.1 1.26-1.582 1.26-.52 0-.78-.38-.78-1.142 0-.508.113-1.13.34-1.866l.382-.058-.049.205a.904.904 0 0 0-.049.156c-.02.091-.039.186-.059.283a3.69 3.69 0 0 0-.078.655c0 .56.199.84.596.84.267 0 .54-.15.82-.45a3.38 3.38 0 0 0 .303-.38l.117-.177.05-.078.048-.068c.202-.325.42-.72.654-1.182.078-.156.166-.335.264-.537l.107-.215.098-.195-1.084-3.398-.058-.157-.06-.146c-.058-.104-.13-.156-.214-.156-.045 0-.091.023-.137.068l-.058.059-.04.058c-.214.293-.497.918-.849 1.875l-.303-.117c.046-.117.092-.238.137-.361.059-.15.114-.296.166-.44.15-.364.29-.67.42-.918.189-.37.365-.65.527-.84.241-.28.485-.42.733-.42.293 0 .53.186.713.557.065.137.136.326.215.567l.097.312.098.322.527 1.7c.15-.313.32-.642.508-.987.254-.462.492-.872.713-1.23.228-.358.449-.638.664-.84.306-.28.615-.42.928-.42h.058l.098.02a.606.606 0 0 1 .244.136c.215.183.322.502.322.957 0 .274-.045.606-.136.996a6.678 6.678 0 0 1-.205.772l-.342.058c.143-.624.214-1.044.214-1.26 0-.305-.068-.523-.205-.654a.553.553 0 0 0-.371-.146c-.26 0-.527.146-.8.44-.098.11-.199.237-.303.38l-.108.176a1.103 1.103 0 0 0-.088.147 17.765 17.765 0 0 0-1.054 1.992L92.5 43.7l.04.156.067.166c.059.13.13.196.215.196.052 0 .114-.043.186-.127a2.39 2.39 0 0 0 .303-.489c.084-.182.169-.367.253-.556.098-.241.193-.482.284-.723l.293.078c-.059.15-.111.287-.157.41-.071.176-.14.339-.205.489-.162.39-.306.696-.43.918-.397.683-.8 1.025-1.21 1.025-.293 0-.547-.368-.762-1.103l-.742-2.54zm6.016-.586c.476-.274.931-.583 1.368-.928a8.06 8.06 0 0 0 1.357-1.348 1.36 1.36 0 0 0 .088-.117l.117-.166c.091-.15.173-.293.244-.43.209-.403.313-.758.313-1.064 0-.202-.056-.348-.166-.44a.43.43 0 0 0-.147-.068.287.287 0 0 0-.107-.02c-.39 0-.876.407-1.455 1.221-.645.899-1.182 2.019-1.612 3.36zm2.871 1.504c-.162.286-.338.57-.527.85-.24.35-.462.64-.664.868-.58.638-1.195.957-1.846.957-.455 0-.836-.136-1.142-.41-.378-.338-.567-.84-.567-1.504v-.244c.007-.11.02-.221.04-.332.038-.312.107-.635.204-.967.28-.957.775-1.963 1.485-3.017.514-.755 1.009-1.345 1.484-1.768.645-.566 1.263-.85 1.856-.85.403 0 .709.124.918.372.182.208.273.475.273.8 0 .32-.088.638-.264.957a3.377 3.377 0 0 1-.234.362 4.614 4.614 0 0 1-.244.283c-.508.553-1.201 1.11-2.08 1.67-.32.195-.651.387-.996.576-.137.078-.274.15-.41.215-.111.059-.219.114-.323.166-.169.56-.29 1.045-.361 1.455-.026.15-.046.293-.059.43-.006.09-.01.182-.01.273v.117l.01.147c.014.136.043.254.088.351.117.293.339.44.664.44.404 0 .853-.264 1.348-.791.195-.209.404-.466.625-.772.156-.221.335-.485.537-.79l.196.156zm6.143-6.417c.553 0 1.009.212 1.367.635.423.489.635 1.188.635 2.1 0 1.562-.482 3.05-1.445 4.463-.899 1.295-1.905 1.943-3.018 1.943-.605 0-1.09-.254-1.455-.762-.365-.494-.547-1.155-.547-1.982 0-1.452.469-2.884 1.406-4.297.944-1.4 1.963-2.1 3.057-2.1zm-.918 7.276c.742-1.23 1.305-2.451 1.69-3.662.143-.443.244-.843.302-1.201a4.094 4.094 0 0 0 .059-.693c0-.456-.117-.795-.352-1.016a.899.899 0 0 0-.634-.245c-.645 0-1.416.873-2.315 2.618-.495.944-.869 1.832-1.123 2.666-.202.677-.303 1.25-.303 1.719 0 .865.313 1.298.938 1.298.351 0 .703-.182 1.054-.547.124-.136.251-.3.381-.488l.166-.234.069-.108.068-.107zm11.436-7.041-2.149 5.722c-.41 1.088-.615 1.713-.615 1.875 0 .105.026.176.078.215l.049.03h.039c.111 0 .27-.111.478-.332.28-.306.655-.82 1.124-1.543l.185-.283.264.175c-.059.104-.13.225-.215.362l-.313.507c-.286.443-.53.795-.732 1.055-.221.293-.443.53-.664.713-.313.24-.609.361-.889.361-.455 0-.683-.257-.683-.771 0-.358.312-1.38.937-3.067l1.699-4.56h-.82c-.404 0-.726.202-.967.605-.11.176-.429.889-.957 2.139a38.373 38.373 0 0 1-1.972 3.926 6.532 6.532 0 0 1-.391.576c-.332.423-.693.742-1.084.957-.286.15-.54.225-.762.225-.28 0-.501-.088-.664-.264a.784.784 0 0 1-.234-.576c0-.456.202-.684.605-.684.235 0 .404.101.508.303l.039.078.029.078c.02.065.04.11.059.137a.329.329 0 0 0 .293.146c.371 0 .869-.546 1.494-1.64.169-.293.397-.726.684-1.3.319-.618.566-1.125.742-1.523.599-1.334.898-2.213.898-2.636 0-.378-.185-.567-.556-.567h-.537l.156-.44h4.844zm4.97-.235c.554 0 1.009.212 1.368.635.423.489.634 1.188.634 2.1 0 1.562-.481 3.05-1.445 4.463-.898 1.295-1.904 1.943-3.018 1.943-.605 0-1.09-.254-1.455-.762-.364-.494-.547-1.155-.547-1.982 0-1.452.469-2.884 1.407-4.297.944-1.4 1.963-2.1 3.056-2.1zm-.918 7.276c.743-1.23 1.306-2.451 1.69-3.662.143-.443.244-.843.303-1.201a4.094 4.094 0 0 0 .058-.693c0-.456-.117-.795-.351-1.016a.903.903 0 0 0-.635-.245c-.645 0-1.416.873-2.315 2.618-.494.944-.869 1.832-1.123 2.666-.201.677-.302 1.25-.302 1.719 0 .865.312 1.298.937 1.298.352 0 .703-.182 1.055-.547.123-.136.25-.3.381-.488l.166-.234.068-.108.068-.107zm8.575-.117a9.016 9.016 0 0 1-1.514 1.298c-.697.456-1.328.684-1.895.684-.573 0-1.015-.17-1.328-.508-.273-.293-.41-.657-.41-1.093 0-.365.095-.717.283-1.055a3.34 3.34 0 0 1 .606-.791c.228-.228.521-.479.879-.752l.478-.361.498-.362c.749-.56 1.244-1 1.485-1.318.273-.365.41-.752.41-1.162 0-.573-.257-.86-.772-.86-.358 0-.726.16-1.103.479a4.39 4.39 0 0 0-.957 1.142l-.293-.224a7.098 7.098 0 0 1 1.416-1.602c.553-.449 1.123-.674 1.709-.674.436 0 .778.121 1.025.362.254.24.381.566.381.976 0 .547-.241 1.068-.723 1.563-.136.143-.726.635-1.767 1.474l-.371.313-.371.322c-.28.248-.531.505-.752.772-.17.195-.306.4-.411.615-.149.3-.224.586-.224.86 0 .156.029.299.088.43.026.045.052.087.078.126l.039.049.029.039c.196.208.485.312.869.312.43 0 .863-.127 1.299-.38l.069-.04.097-.058c.085-.052.17-.11.254-.176.241-.189.462-.404.664-.644l.235.244zm6.738-1.202c-.41 1.088-.615 1.713-.615 1.875 0 .105.022.176.068.215l.059.03h.029c.117 0 .277-.111.478-.332.28-.306.658-.82 1.133-1.543l.176-.283.273.175c-.058.104-.13.225-.214.362l-.313.507c-.286.443-.531.795-.732 1.055-.222.293-.446.53-.674.713-.306.24-.599.361-.879.361-.449 0-.674-.23-.674-.693 0-.228.098-.622.293-1.182l.772-2.285c-.254.469-.518.921-.791 1.358-.346.533-.678.983-.997 1.347-.338.41-.69.749-1.054 1.016-.456.325-.873.488-1.25.488-.554 0-.83-.31-.83-.928 0-.227.039-.481.117-.761.032-.105.071-.215.117-.332.026-.078.062-.166.107-.264l2.09-5.264.039-.088.03-.117a.943.943 0 0 0 .039-.215c0-.065-.023-.114-.069-.146l-.048-.02-.039-.01c-.105 0-.3.157-.586.47a10.25 10.25 0 0 0-.323.38 3.67 3.67 0 0 1-.136.166 2.697 2.697 0 0 1-.098.127l-.43.576-.273-.234.42-.606c.026-.045.065-.1.117-.166a3.59 3.59 0 0 1 .195-.253c.183-.235.371-.45.567-.645.553-.553 1.028-.83 1.425-.83.437 0 .655.244.655.732 0 .274-.212.935-.635 1.983l-1.729 4.238-.087.205-.069.215a1.851 1.851 0 0 0-.078.527c0 .267.101.4.303.4.384 0 1.035-.627 1.953-1.884 1.113-1.556 2.142-3.61 3.086-6.162h1.221l-2.139 5.722zm7.139 1.456c-.098.26-.147.442-.147.547 0 .065.023.113.068.146l.069.03.097-.01c.026 0 .053-.01.079-.03.078-.039.169-.107.273-.205.286-.28.677-.778 1.172-1.494l.264.244c-.658.879-1.071 1.41-1.241 1.592-.527.605-1.009.908-1.445.908a.61.61 0 0 1-.42-.156c-.156-.13-.234-.326-.234-.586 0-.26.091-.622.273-1.084l1.377-3.701c-.26.3-.54.573-.84.82a5.309 5.309 0 0 1-.517.4c-.515.365-1.003.547-1.465.547-.313 0-.544-.104-.694-.312-.123-.163-.185-.374-.185-.635 0-.208.12-.648.361-1.318l.557-1.494.029-.098.039-.117a.948.948 0 0 0 .039-.205c0-.072-.022-.124-.068-.157l-.049-.02-.049-.009c-.104 0-.302.163-.595.488a6.9 6.9 0 0 0-.332.381l-.118.157a.966.966 0 0 0-.088.117l-.429.576-.274-.235.411-.566.107-.137.117-.156.254-.322a7.27 7.27 0 0 1 .566-.625c.469-.462.879-.694 1.231-.694.423 0 .635.245.635.733 0 .104-.017.228-.049.371a5.321 5.321 0 0 1-.225.693l-.635 1.66c-.117.306-.175.518-.175.635 0 .059.003.111.009.157.013.065.033.12.059.166.065.136.182.205.352.205.208 0 .478-.127.81-.381.267-.209.524-.456.772-.742a7.304 7.304 0 0 0 1.269-2.14l.41-1.122h1.231l-2.656 7.178zm4.453-2.5c.475-.274.931-.583 1.367-.928a8.05 8.05 0 0 0 1.445-1.465l.117-.166a6.84 6.84 0 0 0 .244-.43c.209-.403.313-.758.313-1.064 0-.202-.055-.348-.166-.44a.428.428 0 0 0-.147-.068.283.283 0 0 0-.107-.02c-.391 0-.876.407-1.455 1.221-.645.899-1.182 2.019-1.611 3.36zm2.871 1.504c-.163.286-.339.57-.528.85a8.83 8.83 0 0 1-.664.868c-.579.638-1.194.957-1.845.957-.456 0-.837-.136-1.143-.41-.378-.338-.566-.84-.566-1.504v-.244c.006-.11.019-.221.039-.332.039-.312.107-.635.205-.967.28-.957.775-1.963 1.484-3.017.515-.755 1.009-1.345 1.485-1.768.644-.566 1.263-.85 1.855-.85.404 0 .71.124.918.372.182.208.273.475.273.8 0 .32-.087.638-.263.957a3.244 3.244 0 0 1-.235.362 4.292 4.292 0 0 1-.244.283c-.508.553-1.201 1.11-2.08 1.67a23.67 23.67 0 0 1-.996.576c-.137.078-.273.15-.41.215-.111.059-.218.114-.322.166-.17.56-.29 1.045-.362 1.455a3.568 3.568 0 0 0-.068.703v.117l.01.147c.013.136.042.254.088.351.117.293.338.44.664.44.403 0 .853-.264 1.347-.791.196-.209.404-.466.625-.772.157-.221.336-.485.537-.79l.196.156zm5.849.039c-.963 1.777-1.989 2.666-3.076 2.666-.664 0-1.133-.28-1.406-.84a2.34 2.34 0 0 1-.195-.645 3.504 3.504 0 0 1-.03-.263l-.009-.176c0-.749.185-1.566.556-2.451.3-.697.687-1.387 1.162-2.07 1.218-1.772 2.438-2.657 3.662-2.657.769 0 1.153.313 1.153.938 0 .52-.228.78-.684.78-.384 0-.576-.214-.576-.644 0-.104.023-.208.068-.312l.03-.05.029-.058a.353.353 0 0 0 .029-.136.17.17 0 0 0-.049-.127c-.045-.052-.11-.079-.195-.079-.631 0-1.263.502-1.894 1.505-.215.345-.44.758-.674 1.24a20.555 20.555 0 0 0-.811 1.904c-.436 1.172-.654 2.05-.654 2.637 0 .761.241 1.142.723 1.142.423 0 .898-.283 1.425-.85.371-.396.775-.94 1.211-1.63l.205.176zm8.233.341a18.83 18.83 0 0 1-.772 1.24c-.228.32-.433.557-.615.713-.28.228-.563.342-.85.342-.26 0-.459-.127-.595-.38-.124-.222-.186-.499-.186-.83v-.147l.098-2.002v-.098c0-.729-.319-1.093-.957-1.093h-.361L158.223 45h-1.202l2.452-6.543a5.28 5.28 0 0 0 .234-.732c.039-.13.059-.238.059-.323 0-.097-.02-.166-.059-.205a.145.145 0 0 0-.107-.039.329.329 0 0 0-.147.04 1.493 1.493 0 0 0-.244.175c-.241.228-.537.615-.889 1.162l-.488.762-.273-.176.4-.664c.182-.293.348-.55.498-.772.208-.299.407-.553.596-.761.488-.534.934-.801 1.338-.801.436 0 .654.3.654.899 0 .286-.062.585-.186.898l-.849 2.275h.713c.267 0 .52-.097.761-.293.183-.15.365-.364.547-.644.196-.28.469-.82.821-1.621l.117-.274.127-.263c.097-.196.195-.358.293-.489.254-.325.56-.488.918-.488.26 0 .465.085.615.254a.733.733 0 0 1 .205.527.689.689 0 0 1-.205.508.633.633 0 0 1-.449.186.596.596 0 0 1-.508-.254c-.098-.137-.176-.205-.235-.205-.117 0-.231.088-.341.263a7.133 7.133 0 0 0-.352.635l-.107.254-.098.234a4.58 4.58 0 0 1-.547 1.035c-.28.391-.602.678-.967.86.684.358 1.026 1.006 1.026 1.943v.078l-.039 1.377c0 .241.084.362.254.362.169 0 .39-.186.664-.557.293-.404.498-.713.615-.928l.254.205zm6.67-.84c-.41 1.088-.616 1.713-.616 1.875 0 .105.023.176.069.215l.058.03h.03c.117 0 .276-.111.478-.332.28-.306.658-.82 1.133-1.543l.176-.283.273.175c-.058.104-.13.225-.215.362l-.312.507c-.287.443-.531.795-.732 1.055-.222.293-.446.53-.674.713-.306.24-.599.361-.879.361-.449 0-.674-.23-.674-.693 0-.228.098-.622.293-1.182l.771-2.285c-.253.469-.517.921-.791 1.358-.345.533-.677.983-.996 1.347-.338.41-.69.749-1.054 1.016-.456.325-.873.488-1.25.488-.554 0-.83-.31-.83-.928 0-.227.039-.481.117-.761.032-.105.071-.215.117-.332.026-.078.062-.166.107-.264l2.09-5.264.039-.088.03-.117a.943.943 0 0 0 .039-.215c0-.065-.023-.114-.069-.146l-.049-.02-.039-.01c-.104 0-.299.157-.586.47-.104.116-.211.243-.322.38a3.106 3.106 0 0 1-.137.166 2.157 2.157 0 0 1-.097.127l-.43.576-.273-.234.42-.606c.026-.045.065-.1.117-.166.058-.084.123-.169.195-.253a6.9 6.9 0 0 1 .566-.645c.554-.553 1.029-.83 1.426-.83.436 0 .655.244.655.732 0 .274-.212.935-.635 1.983l-1.729 4.238-.088.205-.068.215a1.851 1.851 0 0 0-.078.527c0 .267.101.4.303.4.384 0 1.035-.627 1.953-1.884 1.113-1.556 2.142-3.61 3.086-6.162h1.22l-2.138 5.722zm8.105 0c-.41 1.088-.615 1.713-.615 1.875 0 .105.026.176.078.215l.059.03h.029c.111 0 .27-.111.478-.332.28-.306.655-.82 1.124-1.543l.185-.283.274.175a9.233 9.233 0 0 0-.215.362c-.111.169-.218.338-.323.507-.28.443-.524.795-.732 1.055-.221.293-.443.53-.664.713-.306.24-.602.361-.889.361-.442 0-.664-.23-.664-.693 0-.228.095-.622.283-1.182l.782-2.285c-.254.469-.521.921-.801 1.358-.345.533-.674.983-.986 1.347-.339.41-.694.749-1.065 1.016-.449.325-.866.488-1.25.488-.553 0-.83-.31-.83-.928 0-.227.042-.481.127-.761a5.87 5.87 0 0 1 .117-.332c.026-.078.059-.166.098-.264l2.099-5.264.03-.088.039-.117a.943.943 0 0 0 .039-.215c0-.065-.023-.114-.069-.146l-.048-.02-.049-.01c-.098 0-.29.157-.576.47-.105.116-.215.243-.332.38a9.389 9.389 0 0 0-.127.166 1.353 1.353 0 0 0-.098.127l-.43.576-.273-.234.41-.606c.033-.045.072-.1.117-.166l.196-.253c.188-.235.377-.45.566-.645.56-.553 1.038-.83 1.435-.83.43 0 .645.244.645.732 0 .274-.208.935-.625 1.983l-1.738 4.238-.078.205-.079.215a1.851 1.851 0 0 0-.078.527c0 .267.105.4.313.4.384 0 1.032-.627 1.943-1.884 1.113-1.556 2.142-3.61 3.086-6.162h1.231l-2.149 5.722zm3.145-10.664c-.378.743-.886 1.329-1.524 1.758-.605.404-1.237.606-1.894.606-.541 0-.967-.143-1.28-.43a1.283 1.283 0 0 1-.41-.967c0-.332.091-.608.274-.83a.897.897 0 0 1 .713-.332c.41 0 .615.199.615.596 0 .143-.026.26-.078.351l-.078.108-.079.088-.087.078-.079.098a.432.432 0 0 0-.087.263c0 .143.065.27.195.381.143.13.332.195.566.195.502 0 1.022-.195 1.563-.586a4.613 4.613 0 0 0 1.377-1.572l.293.195zm8.838 11.26 4.228-6.318h1.436l-2.364 6.201c-.312.833-.468 1.299-.468 1.396 0 .105.026.176.078.215l.058.03h.03c.11 0 .27-.111.478-.332.28-.306.654-.82 1.123-1.543l.186-.283.273.175c-.065.104-.137.225-.215.362-.11.169-.218.338-.322.507-.28.443-.524.795-.732 1.055-.222.293-.443.53-.664.713-.306.24-.603.361-.889.361-.443 0-.664-.237-.664-.713 0-.325.133-.84.4-1.542l2.071-5.499h-.049L189.873 45h-.41l1.084-7.695h-.059l-.088.254-.097.273-.215.586c-.169.462-.313.837-.43 1.123a32.497 32.497 0 0 1-1.572 3.36 10.02 10.02 0 0 1-.674 1.104c-.332.455-.654.78-.967.975-.267.163-.53.245-.791.245a.882.882 0 0 1-.664-.264.766.766 0 0 1-.244-.576c0-.456.205-.684.615-.684.228 0 .397.101.508.303l.039.078.03.078a.47.47 0 0 0 .058.137.272.272 0 0 0 .127.098c.039.02.088.029.147.029.214 0 .485-.221.81-.664.15-.209.316-.469.498-.782.254-.442.534-.99.84-1.64.43-.938.784-1.797 1.064-2.578.144-.404.245-.733.303-.987.039-.175.059-.325.059-.449 0-.364-.189-.547-.567-.547h-.537l.156-.44h2.842l-.888 6.32zm9.707 1.446c.423-.788.771-1.605 1.045-2.452.338-1.022.507-1.904.507-2.646 0-.352-.052-.84-.156-1.465l-.098-.635c0-.52.225-.781.674-.781a.62.62 0 0 1 .42.156c.176.17.264.462.264.88 0 .253-.036.569-.108.947-.026.143-.055.286-.087.43a3.29 3.29 0 0 1-.079.282c-.306 1.244-.979 3.05-2.021 5.42-.755 1.712-1.377 2.9-1.865 3.565-.736 1.009-1.553 1.513-2.451 1.513-.697 0-1.045-.267-1.045-.8 0-.489.211-.733.634-.733.183 0 .404.134.664.4l.127.127.137.127a.526.526 0 0 0 .352.147c.267 0 .53-.12.791-.361.325-.3.586-.746.781-1.338a8.02 8.02 0 0 0 .352-1.807c.026-.267.045-.556.058-.869v-1.25c0-.208-.003-.42-.01-.635a38.632 38.632 0 0 0-.068-1.63c-.091-1.479-.257-2.53-.498-3.155-.124-.319-.26-.479-.41-.479-.215 0-.43.245-.645.733-.078.17-.156.378-.234.625l-.098.293-.039.137-.029.117-.186.595-.322-.117.283-.966c.274-.905.612-1.556 1.016-1.954.286-.28.592-.42.918-.42.553 0 .941.57 1.162 1.71.189.95.283 2.438.283 4.462v.84l-.019.987zm5.351-3.858c.599 0 1.169-.24 1.709-.722.554-.47.83-1.003.83-1.602 0-.723-.325-1.084-.976-1.084-.254 0-.521.072-.801.215a3.862 3.862 0 0 0-.342.205 3.48 3.48 0 0 0-.283.205A7.157 7.157 0 0 0 205 38.535l-.273-.293c.501-.742 1.031-1.295 1.591-1.66.495-.319 1.006-.479 1.534-.479.572 0 1.025.166 1.357.499.299.299.449.673.449 1.123 0 .3-.078.595-.234.888-.209.39-.55.746-1.026 1.065a6.205 6.205 0 0 1-.693.39 6.948 6.948 0 0 1-.625.274v.078c.41.032.759.192 1.045.478.326.326.488.759.488 1.3 0 .963-.439 1.757-1.318 2.382a3.49 3.49 0 0 1-2.08.664 2.68 2.68 0 0 1-1.514-.44 1.656 1.656 0 0 1-.537-.595 1.218 1.218 0 0 1-.146-.566c0-.43.205-.645.615-.645.306 0 .508.153.605.459.033.085.056.173.069.264l.029.215c.019.162.068.312.146.449.163.293.407.44.733.44.241 0 .475-.07.703-.206.293-.163.553-.423.781-.781.41-.625.615-1.27.615-1.934 0-.482-.149-.814-.449-.996a.93.93 0 0 0-.371-.127l-.166-.02h-.82l.146-.517h.254zm5.41.772c.476-.274.931-.583 1.368-.928a8.087 8.087 0 0 0 1.357-1.348c.033-.039.062-.078.088-.117l.117-.166a7.38 7.38 0 0 0 .244-.43c.209-.403.313-.758.313-1.064 0-.202-.056-.348-.166-.44a.437.437 0 0 0-.147-.068.283.283 0 0 0-.107-.02c-.391 0-.876.407-1.455 1.221-.645.899-1.182 2.019-1.612 3.36zm2.871 1.504c-.162.286-.338.57-.527.85a8.988 8.988 0 0 1-.664.868c-.579.638-1.195.957-1.846.957-.455 0-.836-.136-1.142-.41-.378-.338-.567-.84-.567-1.504v-.244c.007-.11.02-.221.039-.332.039-.312.108-.635.206-.967.279-.957.774-1.963 1.484-3.017.514-.755 1.009-1.345 1.484-1.768.645-.566 1.263-.85 1.856-.85.403 0 .709.124.918.372.182.208.273.475.273.8 0 .32-.088.638-.264.957a3.377 3.377 0 0 1-.234.362 4.614 4.614 0 0 1-.244.283c-.508.553-1.201 1.11-2.08 1.67a23.67 23.67 0 0 1-.996.576c-.137.078-.274.15-.41.215-.111.059-.218.114-.323.166-.169.56-.289 1.045-.361 1.455-.026.15-.046.293-.059.43a4.16 4.16 0 0 0-.009.273v.117l.009.147c.013.136.043.254.088.351.118.293.339.44.664.44.404 0 .853-.264 1.348-.791.195-.209.404-.466.625-.772.156-.221.335-.485.537-.79l.195.156zm7.139-.46c-.41 1.088-.615 1.713-.615 1.875 0 .105.026.176.078.215l.059.03h.029c.111 0 .27-.111.478-.332.28-.306.655-.82 1.123-1.543l.186-.283.273.175c-.065.104-.136.225-.214.362-.111.169-.218.338-.323.507-.28.443-.524.795-.732 1.055-.221.293-.443.53-.664.713-.306.24-.602.361-.889.361-.443 0-.664-.23-.664-.693 0-.228.095-.622.283-1.182l.782-2.285c-.254.469-.521.921-.801 1.358-.345.533-.674.983-.987 1.347-.338.41-.693.749-1.064 1.016-.449.325-.866.488-1.25.488-.553 0-.83-.31-.83-.928 0-.227.042-.481.127-.761.032-.105.072-.215.117-.332.026-.078.059-.166.098-.264l2.099-5.264.03-.088.039-.117a.943.943 0 0 0 .039-.215c0-.065-.023-.114-.069-.146l-.048-.02-.049-.01c-.098 0-.29.157-.576.47-.105.116-.215.243-.332.38a9.389 9.389 0 0 0-.127.166 1.353 1.353 0 0 0-.098.127l-.43.576-.273-.234.41-.606c.033-.045.072-.1.117-.166l.195-.253a9.51 9.51 0 0 1 .567-.645c.56-.553 1.038-.83 1.435-.83.43 0 .645.244.645.732 0 .274-.208.935-.625 1.983l-1.738 4.238-.078.205-.079.215a1.851 1.851 0 0 0-.078.527c0 .267.104.4.313.4.384 0 1.032-.627 1.943-1.884 1.113-1.556 2.142-3.61 3.086-6.162h1.231l-2.149 5.722zm3.145-10.664c-.378.743-.886 1.329-1.524 1.758-.605.404-1.237.606-1.894.606-.541 0-.967-.143-1.28-.43a1.283 1.283 0 0 1-.41-.967c0-.332.091-.608.274-.83a.896.896 0 0 1 .713-.332c.41 0 .615.199.615.596 0 .143-.026.26-.078.351l-.078.108-.079.088-.087.078-.079.098a.432.432 0 0 0-.087.263c0 .143.065.27.195.381.143.13.332.195.566.195.502 0 1.022-.195 1.563-.586a4.613 4.613 0 0 0 1.377-1.572l.293.195z" fill="currentColor" />
  </symbol>

</svg>