<svg width="32" height="32" viewBox="0 0 32 32" fill="none" xmlns="http://www.w3.org/2000/svg">
<path d="M16.015 13.2607C17.5428 13.2551 18.7596 12.0278 18.754 10.4967C18.7485 8.96497 17.529 7.74618 16.0006 7.74487C14.4593 7.74324 13.2284 8.98461 13.2402 10.5301C13.2517 12.0556 14.4823 13.2662 16.015 13.2607Z" fill="white"/>
<path d="M16 0C7.16342 0 0 7.16374 0 16C0 24.8363 7.16342 32 16 32C24.8366 32 32 24.8363 32 16C32 7.16374 24.8366 0 16 0ZM16.0229 4.86564C19.1394 4.87415 21.6408 7.42334 21.6248 10.5742C21.6091 13.6525 19.0668 16.1473 15.9555 16.1368C12.8759 16.1264 10.3503 13.5732 10.3687 10.4888C10.386 7.37064 12.9129 4.85713 16.0229 4.86564ZM22.3352 18.3511C21.6461 19.0586 20.8165 19.5706 19.8953 19.9277C19.0245 20.2652 18.0703 20.4352 17.1255 20.5484C17.2685 20.7036 17.3357 20.7799 17.4247 20.8689C18.7067 22.1577 19.9948 23.44 21.2726 24.7325C21.7079 25.1731 21.7986 25.7192 21.559 26.2308C21.2974 26.7906 20.7105 27.1586 20.1346 27.119C19.7699 27.0938 19.4855 26.9127 19.2331 26.6584C18.2654 25.6848 17.2793 24.7286 16.3319 23.7366C16.0553 23.4479 15.9231 23.5029 15.6792 23.7537C14.7059 24.7561 13.7166 25.7424 12.7218 26.7235C12.2749 27.1642 11.7433 27.244 11.2247 26.992C10.6738 26.7255 10.3235 26.1627 10.3503 25.5967C10.3693 25.215 10.5572 24.9224 10.8198 24.6611C12.089 23.3945 13.3542 22.124 14.6198 20.8545C14.704 20.7704 14.7819 20.681 14.904 20.5501C13.1778 20.3697 11.6212 19.9448 10.2885 18.9028C10.1228 18.7731 9.95225 18.6481 9.80166 18.5027C9.21796 17.9426 9.15937 17.3006 9.62062 16.64C10.0158 16.0743 10.6783 15.9231 11.3674 16.2481C11.501 16.3107 11.628 16.3899 11.7498 16.4737C14.2332 18.1803 17.645 18.2271 20.1382 16.55C20.3851 16.3614 20.6492 16.2062 20.9553 16.128C21.5498 15.9748 22.105 16.1938 22.4239 16.7143C22.7889 17.3091 22.7847 17.8892 22.3352 18.3511Z" fill="white"/>
</svg>
