<svg width="32" height="32" viewBox="0 0 32 32" fill="none" xmlns="http://www.w3.org/2000/svg">
<path d="M16 0C7.16374 0 0 7.16342 0 16C0 24.8366 7.16374 32 16 32C24.8363 32 32 24.8366 32 16C32 7.16342 24.8363 0 16 0ZM24.1161 17.7305C24.8618 18.4588 25.6507 19.1443 26.3202 19.948C26.6168 20.3036 26.8964 20.6712 27.1092 21.0846C27.413 21.6742 27.1386 22.3208 26.6109 22.3558L23.333 22.3552C22.4864 22.4252 21.8127 22.0838 21.2447 21.505C20.7913 21.0437 20.3707 20.551 19.934 20.0741C19.7555 19.8783 19.5676 19.694 19.3437 19.549C18.8969 19.2583 18.5086 19.3473 18.2526 19.8141C17.9917 20.2891 17.9321 20.8155 17.9072 21.3442C17.8715 22.1172 17.6385 22.3191 16.8629 22.3555C15.2058 22.4331 13.6335 22.1816 12.1721 21.3462C10.8829 20.6093 9.88514 19.5693 9.01565 18.3917C7.32252 16.0962 6.02582 13.5768 4.86073 10.9851C4.59851 10.4014 4.79034 10.0891 5.43427 10.077C6.5041 10.0563 7.57393 10.059 8.64376 10.076C9.07916 10.0829 9.36724 10.332 9.53453 10.7428C10.1127 12.1652 10.8214 13.5186 11.7095 14.7737C11.9462 15.1079 12.1878 15.4412 12.5319 15.6772C12.9116 15.9378 13.201 15.8517 13.3801 15.4278C13.4947 15.1583 13.5441 14.8703 13.569 14.5815C13.6541 13.5926 13.6642 12.6039 13.5169 11.6189C13.4253 11.0024 13.0786 10.6044 12.4641 10.4878C12.1512 10.4286 12.197 10.3127 12.3492 10.1339C12.6134 9.8249 12.8609 9.63372 13.3555 9.63372L17.059 9.63306C17.6427 9.74764 17.7737 10.0095 17.8529 10.5975L17.8562 14.7131C17.8493 14.9406 17.9704 15.615 18.379 15.764C18.7063 15.872 18.9224 15.6095 19.1182 15.4022C20.0063 14.4597 20.6391 13.3474 21.2058 12.196C21.4559 11.6883 21.6716 11.1628 21.8811 10.6364C22.0369 10.2472 22.2792 10.0557 22.7185 10.0622L26.2848 10.0665C26.3899 10.0665 26.4967 10.0675 26.6008 10.0855C27.2018 10.1883 27.3665 10.4469 27.1805 11.0332C26.8879 11.9544 26.3192 12.7218 25.7634 13.4911C25.1675 14.3147 24.5321 15.1096 23.9422 15.9368C23.4001 16.693 23.443 17.0738 24.1161 17.7305Z" fill="white"/>
</svg>
